<?xml version="1.0" encoding="iso-8859-1"?>
<!-- Generator: Adobe Illustrator 19.0.0, SVG Export Plug-In . SVG Version: 6.00 Build 0)  -->
<svg version="1.1" id="Layer_1" xmlns="http://www.w3.org/2000/svg" xmlns:xlink="http://www.w3.org/1999/xlink" x="0px" y="0px"
	 viewBox="0 0 511.999 511.999" style="enable-background:new 0 0 511.999 511.999;" xml:space="preserve">
<path style="fill:#F9DCA4;" d="M292.823,356.968c-0.676,0-1.361-0.032-2.054-0.098c-21.238-2.005-46.624-37.858-51.498-45.025
	c-2.781-4.091-1.72-9.661,2.371-12.442c4.091-2.781,9.66-1.72,12.442,2.371c15.125,22.21,31.694,36.636,38.37,37.264
	c0.832,0.075,1.027-0.079,1.389-0.44c10.175-10.175,36.887-94.158,52.605-150.542c1.328-4.763,6.266-7.549,11.031-6.222
	c4.765,1.328,7.55,6.267,6.222,11.031c-0.097,0.346-9.8,35.094-21.389,71.399c-24.007,75.203-32.577,83.774-35.804,86.999
	C302.754,355.019,298.056,356.968,292.823,356.968z"/>
<path style="fill:#778082;" d="M467.108,63.263c0,0,24.693,72.351-9.787,140.419c-16.073,3.182-30.493,7.469-40.75-2.788
	c-10.258-10.258-0.28-53.897-15.935-53.897c13.572-0.073-22.546-59.434-11.929-66.312C407.563,68.47,435.58,51.96,467.108,63.263z"
	/>
<path style="fill:#F9DCA4;" d="M432.263,381.713c0,0-1.135,12.335-3.822,29.125c-2.268,14.15-5.648,31.453-10.377,47.192
	c-4.777,15.858-10.926,30.104-18.712,37.89c-7.786-7.786-13.936-22.032-18.701-37.89c-4.729-15.738-8.108-33.041-10.377-47.192
	c-2.687-16.79-3.821-29.125-3.821-29.125H432.263z"/>
<path style="fill:#E7C080;" d="M432.257,381.716c0,0-1.135,12.335-3.821,29.125H370.27c-2.687-16.79-3.821-29.125-3.821-29.125
	H432.257z"/>
<g>
	<path style="fill:#EAA0E3;" d="M418.064,458.029c-4.777,15.858-10.926,30.104-18.712,37.89
		c-7.786-7.786-13.936-22.032-18.701-37.89H418.064z"/>
	<path style="fill:#EAA0E3;" d="M457.315,203.679v80.413h-113.37v-80.413c0-18.903,9.255-35.645,23.489-45.938
		c9.326-6.771,20.789-10.747,33.197-10.747c12.252,0,23.607,3.881,32.875,10.508c2.579,1.827,4.991,3.87,7.213,6.101
		C450.974,173.863,457.315,188.036,457.315,203.679z"/>
</g>
<path style="fill:#D57CD4;" d="M412.852,148.335c-3.937-0.866-8.022-1.336-12.22-1.336l0,0c-31.306,0-56.683,25.377-56.683,56.682
	v80.41h24.44v-80.41C368.39,176.575,387.424,153.925,412.852,148.335z"/>
<polygon style="fill:#53C489;" points="466.653,382.908 334.612,382.908 343.95,284.092 457.315,284.092 "/>
<circle style="fill:#F9DCA4;" cx="400.253" cy="78.458" r="68.546"/>
<g>
	<path style="fill:#E7C080;" d="M433.504,157.503c-9.851,5.481-21.196,8.598-33.257,8.598c-11.893,0-23.071-3.034-32.815-8.359
		c9.326-6.771,20.789-10.747,33.197-10.747C412.881,146.994,424.237,150.875,433.504,157.503z"/>
	<path style="fill:#E7C080;" d="M362.913,78.454c0-32.487,22.607-59.674,52.942-66.741c-5.016-1.168-10.233-1.805-15.604-1.805
		c-37.857,0-68.546,30.689-68.546,68.546S362.394,147,400.251,147c5.371,0,10.588-0.637,15.604-1.805
		C385.52,138.128,362.913,110.941,362.913,78.454z"/>
</g>
<path style="fill:#778082;" d="M468.798,78.454C392.72,86.252,352.072,29.71,352.072,29.71
	c12.383-12.24,29.399-19.799,48.183-19.799C438.109,9.911,468.798,40.6,468.798,78.454z"/>
<polyline style="fill:#41AF73;" points="368.39,284.092 367.595,382.908 334.612,382.908 343.95,284.092 "/>
<g>
	<path style="fill:#778082;" d="M362.656,88.601c-3.585,0-6.569-2.981-6.568-6.568c0.002-3.579,2.987-6.552,6.562-6.562
		c3.569-0.009,6.572,2.996,6.573,6.562C369.225,85.613,366.231,88.601,362.656,88.601z"/>
	<path style="fill:#778082;" d="M414.541,88.601c-3.714,0-6.77-3.21-6.557-6.929c0.19-3.314,2.911-6.008,6.221-6.188
		c3.558-0.193,6.692,2.643,6.893,6.19C421.308,85.387,418.245,88.601,414.541,88.601z"/>
</g>
<path style="fill:#FFFFFF;" d="M364.795,108.85c4.934,1.024,8.767,1.831,12.468,2.252c3.659,0.446,7.027,0.661,10.413,0.66
	c3.384-0.013,6.75-0.227,10.405-0.676c3.698-0.423,7.529-1.223,12.476-2.235c-1.056,4.969-4.389,8.978-8.522,11.791
	c-4.169,2.796-9.272,4.262-14.359,4.254c-5.088-0.007-10.186-1.471-14.353-4.27C369.194,117.81,365.862,113.808,364.795,108.85z"/>
<path style="fill:#EAA0E3;" d="M405.702,483.422h-12.687c-6.418,0-11.621,5.203-11.621,11.621v0.877h35.928v-0.877
	C417.322,488.624,412.119,483.422,405.702,483.422z"/>
<path style="fill:#EC589B;" d="M497.232,173.735L497.232,173.735c-17.562-17.562-46.035-17.562-63.597,0l-47.894,47.894
	c-17.562,17.562-17.562,46.035,0,63.597l0,0c17.562,17.562,46.035,17.562,63.597,0l47.894-47.894
	C514.794,219.771,514.794,191.298,497.232,173.735z"/>
<path style="fill:#D3468D;" d="M406.283,288.003L406.283,288.003c-17.562-17.561-17.562-46.035,0-63.597l47.894-47.894
	c7.657-7.657,17.389-11.973,27.386-12.954c-16.073-6.166-34.97-2.781-47.928,10.178l-47.894,47.894
	c-17.562,17.562-17.562,46.035,0,63.597l0,0c9.904,9.904,23.28,14.22,36.21,12.954C416.242,295.989,410.886,292.605,406.283,288.003
	z"/>
<path style="fill:#EAD5AC;" d="M466.098,209.035c-4.53,4.53-10.493,6.795-16.444,6.795c-4.775,0-9.538-1.455-13.58-4.375
	c-0.999-0.711-1.954-1.521-2.854-2.421c-9.072-9.061-9.072-23.817,0-32.878c4.53-4.53,10.482-6.807,16.433-6.807
	s11.914,2.276,16.444,6.807c0.899,0.899,1.71,1.865,2.432,2.865C475.069,188.104,474.259,200.873,466.098,209.035z"/>
<path style="fill:#FCE8BB;" d="M466.098,209.035c-4.53,4.53-10.493,6.795-16.444,6.795c-4.775,0-9.538-1.455-13.58-4.375
	c-6.562-9.083-5.752-21.863,2.421-30.024c4.53-4.541,10.482-6.807,16.433-6.807c4.775,0,9.549,1.455,13.602,4.397
	C475.069,188.104,474.259,200.873,466.098,209.035z"/>
<path style="fill:#F9DCA4;" d="M504.561,286.727c-3.487,3.475-8.05,5.219-13.769,5.219c-8.405,0.011-19.287-3.764-32.822-11.337
	c-0.855-0.477-1.71-0.966-2.554-1.455c-13.413-7.761-24.606-16.311-25.105-16.689c-3.653-2.798-4.342-8.028-1.543-11.681
	c2.798-3.642,8.028-4.342,11.681-1.543c0.111,0.1,12.292,9.383,25.772,16.9c0.477,0.267,0.955,0.533,1.421,0.788
	c17.61,9.582,24.395,8.761,25.139,8.017c3.864-3.864,3.009-14.99,0.211-26.427c-0.444-1.821-0.933-3.664-1.466-5.474l5.707-5.707
	c2.754-2.754,5.074-5.774,6.973-8.983c2.41,6.374,5.841,16.8,7.206,27.482C512.888,267.44,511.922,279.354,504.561,286.727z"/>
<g>
	<path style="fill:#778082;" d="M462.019,201.673c-1.96,0-3.572-1.694-3.46-3.656c0.1-1.749,1.537-3.17,3.283-3.266
		c1.878-0.102,3.531,1.395,3.638,3.267C465.589,199.976,463.973,201.673,462.019,201.673z"/>
	<path style="fill:#778082;" d="M442.488,183.121c-1.96,0-3.572-1.694-3.46-3.656c0.1-1.749,1.537-3.17,3.283-3.266
		c1.878-0.102,3.531,1.395,3.638,3.267C446.058,181.425,444.442,183.121,442.488,183.121z"/>
</g>
<path style="fill:#D3468D;" d="M449.654,218.051c-5.392,0-10.537-1.658-14.88-4.796c-1.08-0.767-2.135-1.662-3.123-2.65
	c-4.807-4.801-7.455-11.197-7.455-18.01c0.001-6.812,2.648-13.208,7.456-18.009c4.807-4.808,11.201-7.456,18.003-7.456
	c6.809,0,13.207,2.648,18.015,7.457c0.95,0.95,1.845,2.005,2.662,3.135c7.333,10.183,6.211,24.012-2.662,32.885l0,0
	C462.866,215.406,456.469,218.051,449.654,218.051z M449.654,171.571c-5.616,0-10.895,2.186-14.864,6.156
	c-3.967,3.963-6.153,9.244-6.154,14.869c0,5.625,2.185,10.905,6.152,14.868c0.814,0.814,1.68,1.548,2.572,2.182
	c3.594,2.596,7.841,3.964,12.293,3.964c5.628,0,10.91-2.182,14.874-6.145l0,0c7.326-7.325,8.251-18.741,2.2-27.145
	c-0.675-0.935-1.417-1.808-2.201-2.593C460.558,173.757,455.275,171.571,449.654,171.571z"/>
<path style="fill:#E7C080;" d="M511.412,255.836c-6.063-5.23-13.236-6.884-18.421-7.317c-0.444-1.821-0.933-3.664-1.466-5.474
	l5.707-5.707c2.754-2.754,5.074-5.774,6.973-8.983C506.615,234.728,510.046,245.155,511.412,255.836z"/>
<g>
	<path style="fill:#F9DCA4;" d="M150.212,421.897c-4.725,0-8.554-3.83-8.554-8.554c0-66.961,33.033-103.494,34.439-105.016
		c3.205-3.47,8.619-3.686,12.089-0.48c3.465,3.201,3.685,8.601,0.494,12.073c-0.483,0.535-29.913,33.698-29.913,93.423
		C158.768,418.067,154.937,421.897,150.212,421.897z"/>
	<path style="fill:#F9DCA4;" d="M217.4,428.293v73.799c-4.848-4.848-9.034-12.216-12.649-20.919
		c-4.745-11.429-8.487-25.151-11.383-38.44c-1.073-4.928-2.031-9.776-2.875-14.44H217.4z"/>
	<path style="fill:#F9DCA4;" d="M244.308,428.293c-0.844,4.666-1.802,9.514-2.875,14.44c-2.897,13.289-6.639,27.011-11.383,38.44
		c-3.615,8.703-7.801,16.071-12.649,20.919v-89.061L244.308,428.293z"/>
</g>
<path style="fill:#E7C080;" d="M244.308,428.293c-0.844,4.666-1.802,9.514-2.875,14.44h-48.067
	c-1.073-4.928-2.031-9.776-2.875-14.44l26.907-15.262L244.308,428.293z"/>
<path style="fill:#F7C957;" d="M166.316,420.585l-1.154,7.704h104.471l-1.154-7.704c-4.242-28.315-6.37-56.907-6.37-85.539v-9.508
	c0-24.693-20.018-44.711-44.711-44.711l0,0c-24.693,0-44.711,20.018-44.711,44.711v9.508
	C172.686,363.677,170.556,392.269,166.316,420.585z"/>
<path style="fill:#D5A03C;" d="M172.915,325.537v9.508c0,28.632-2.13,57.224-6.37,85.539l-1.154,7.704h27.482l0.546-7.704
	c2.01-28.315,3.019-56.907,3.019-85.539v-9.508c0-24.693,9.486-44.711,21.188-44.711l0,0
	C192.932,280.826,172.915,300.844,172.915,325.537z"/>
<path style="fill:#E7C080;" d="M249.016,293.929c-7.323,9.418-18.758,15.485-31.614,15.485c-12.866,0-24.314-6.067-31.624-15.496
	c8.086-8.087,19.26-13.096,31.614-13.096C229.745,280.822,240.929,285.832,249.016,293.929z"/>
<g>
	<path style="fill:#F7C957;" d="M230.05,481.173c-3.615,8.703-7.801,16.071-12.649,20.919c-4.848-4.848-9.034-12.216-12.649-20.919
		H230.05z"/>
	<path style="fill:#F7C957;" d="M222.939,490.154h-11.078c-6.418,0-11.621,5.203-11.621,11.621v0.316h34.319v-0.316
		C234.56,495.358,229.357,490.154,222.939,490.154z"/>
</g>
<circle style="fill:#F9DCA4;" cx="217.398" cy="232.421" r="54.104"/>
<path style="fill:#E7C080;" d="M191.666,232.426c0-24.97,16.921-45.978,39.918-52.212c-4.523-1.226-9.276-1.892-14.186-1.892
	c-29.881,0-54.104,24.224-54.104,54.104s24.224,54.104,54.104,54.104c4.911,0,9.664-0.666,14.186-1.892
	C208.586,278.403,191.666,257.395,191.666,232.426z"/>
<g>
	<path style="fill:#F7C957;" d="M217.397,178.316c0,42.516-52.534,41.13-52.534,41.13
		C170.67,195.831,191.993,178.316,217.397,178.316z"/>
	<path style="fill:#F7C957;" d="M269.931,219.446c0,0-52.534,1.386-52.534-41.13C242.802,178.316,264.125,195.831,269.931,219.446z"
		/>
</g>
<g>
	<path style="fill:#778082;" d="M196.116,241.387c-3.414,0-6.275-2.858-6.274-6.274c0.001-3.501,2.997-6.374,6.485-6.261
		c3.407,0.11,6.173,3.055,6.055,6.467C202.267,238.661,199.467,241.387,196.116,241.387z"/>
	<path style="fill:#778082;" d="M238.673,241.387c-3.565,0-6.501-3.117-6.259-6.683c0.238-3.499,3.429-6.198,6.919-5.817
		c2.962,0.323,5.332,2.728,5.588,5.702C245.233,238.201,242.297,241.387,238.673,241.387z"/>
</g>
<g>
	<path style="fill:#F9DCA4;" d="M50.437,425.861c1.073,5.879,2.31,12.076,3.723,18.31c5.266,23.152,13.055,46.893,24.083,57.921
		v-76.231H50.437z"/>
	<path style="fill:#F9DCA4;" d="M78.243,410.096v91.996c11.005-11.028,18.793-34.769,24.059-57.921
		c1.426-6.232,2.663-12.431,3.735-18.31L78.243,410.096z"/>
</g>
<path style="fill:#E7C080;" d="M50.437,425.861c1.073,5.879,2.31,12.076,3.723,18.31h48.142c1.426-6.232,2.663-12.431,3.735-18.31
	l-27.795-15.765v15.765H50.437z"/>
<path style="fill:#EAA0E3;" d="M56.634,502.086h43.202l0,0c0-9.761-7.912-17.674-17.674-17.674h-7.855
	C64.547,484.413,56.634,492.325,56.634,502.086L56.634,502.086z"/>
<g>
	<path style="fill:#F9DCA4;" d="M8.836,419.255c4.881,0,8.836-3.956,8.836-8.836c0-62.328,30.575-96.15,30.885-96.484
		c3.311-3.584,3.089-9.176-0.496-12.487c-3.586-3.311-9.177-3.089-12.487,0.495C34.123,303.514,0,341.251,0,410.418
		C0,415.298,3.956,419.255,8.836,419.255z"/>
	<path style="fill:#F9DCA4;" d="M146.44,419.255c-4.881,0-8.836-3.956-8.836-8.836c0-62.328-30.575-96.15-30.885-96.484
		c-3.311-3.584-3.089-9.176,0.496-12.487c3.586-3.311,9.177-3.089,12.487,0.495c1.452,1.572,35.575,39.309,35.575,108.476
		C155.278,415.298,151.322,419.255,146.44,419.255z"/>
</g>
<path style="fill:#EAA0E3;" d="M32.056,319.715v82.228l92.361-16.708v-65.521c0-16.248-8.401-30.539-21.09-38.764
	c-7.223-4.689-15.835-7.411-25.096-7.411c-9.26,0-17.874,2.721-25.084,7.411c-2.734,1.768-5.266,3.817-7.564,6.115
	C37.217,295.42,32.056,306.966,32.056,319.715z"/>
<path style="fill:#D57CD4;" d="M69.028,274.456c2.976-0.602,6.054-0.92,9.207-0.92l0,0c25.507,0,46.184,20.677,46.184,46.184v65.517
	h-18.414V319.72C106.005,297.366,90.123,278.724,69.028,274.456z"/>
<path style="fill:#E7C080;" d="M53.146,280.951c7.54,3.794,16.07,5.938,25.084,5.938c9.025,0,17.544-2.144,25.096-5.938
	c-7.223-4.689-15.835-7.411-25.096-7.411C68.97,273.54,60.357,276.262,53.146,280.951z"/>
<rect x="32.051" y="385.241" style="fill:#F7C957;" width="92.371" height="47.934"/>
<g>
	<rect x="105.662" y="385.241" style="fill:#D5A03C;" width="18.754" height="47.934"/>
	<path style="fill:#D5A03C;" d="M77.971,405.617h0.529c2.388,0,4.324,1.935,4.324,4.324v23.238h-9.176v-23.238
		C73.647,407.552,75.584,405.617,77.971,405.617z"/>
</g>
<circle style="fill:#F9DCA4;" cx="78.236" cy="223.538" r="55.885"/>
<path style="fill:#E7C080;" d="M104.814,223.54c0-25.793-17.478-47.493-41.233-53.933c4.671-1.267,9.581-1.954,14.653-1.954
	c30.865,0,55.887,25.021,55.887,55.887s-25.021,55.887-55.887,55.887c-5.072,0-9.982-0.688-14.653-1.954
	C87.337,271.033,104.814,249.333,104.814,223.54z"/>
<g>
	<path style="fill:#778082;" d="M56.258,221.533c3.659,0,6.679-3.199,6.47-6.845c-0.203-3.535-3.351-6.349-6.9-6.107
		c-3.366,0.23-6.051,3.1-6.05,6.472C49.779,218.574,52.729,221.533,56.258,221.533z"/>
	<path style="fill:#778082;" d="M100.217,221.533c3.523,0,6.478-2.961,6.48-6.48c0.002-3.538-2.956-6.478-6.485-6.486
		c-3.525-0.009-6.478,2.969-6.476,6.486C93.738,218.572,96.695,221.533,100.217,221.533z"/>
</g>
<g>
</g>
<g>
</g>
<g>
</g>
<g>
</g>
<g>
</g>
<g>
</g>
<g>
</g>
<g>
</g>
<g>
</g>
<g>
</g>
<g>
</g>
<g>
</g>
<g>
</g>
<g>
</g>
<g>
</g>
</svg>
