<?xml version="1.0" encoding="iso-8859-1"?>
<!-- Generator: Adobe Illustrator 19.0.0, SVG Export Plug-In . SVG Version: 6.00 Build 0)  -->
<svg version="1.1" id="Layer_1" xmlns="http://www.w3.org/2000/svg" xmlns:xlink="http://www.w3.org/1999/xlink" x="0px" y="0px"
	 viewBox="0 0 512 512" style="enable-background:new 0 0 512 512;" xml:space="preserve">
<g>
	<path style="fill:#FCE8BB;" d="M462.538,422.848c-1.051,5.766-2.265,11.843-3.651,17.956
		c-5.165,22.704-12.802,45.987-23.617,56.801v-74.757H462.538z"/>
	<path style="fill:#FCE8BB;" d="M435.271,407.389v90.217c-10.792-10.815-18.429-34.097-23.594-56.801
		c-1.398-6.112-2.611-12.19-3.663-17.956L435.271,407.389z"/>
</g>
<path style="fill:#E7C080;" d="M462.538,422.848c-1.051,5.766-2.265,11.843-3.651,17.956h-47.211
	c-1.398-6.112-2.611-12.19-3.663-17.956l27.257-15.46v15.46H462.538z"/>
<path style="fill:#EAA0E3;" d="M456.461,497.6h-42.367l0,0c0-9.572,7.76-17.332,17.332-17.332h7.703
	C448.702,480.268,456.461,488.028,456.461,497.6L456.461,497.6z"/>
<g>
	<path style="fill:#F9DCA4;" d="M503.334,416.37c-4.787,0-8.666-3.88-8.666-8.666c0-61.123-29.984-94.291-30.288-94.619
		c-3.248-3.515-3.03-8.999,0.486-12.245c3.517-3.248,9-3.03,12.247,0.485C478.537,302.866,512,339.874,512,407.703
		C512,412.49,508.121,416.37,503.334,416.37z"/>
	<path style="fill:#F9DCA4;" d="M8.666,416.37C3.88,416.37,0,412.49,0,407.704c0-67.83,33.462-104.837,34.886-106.378
		c3.247-3.515,8.731-3.734,12.245-0.485c3.51,3.242,3.732,8.713,0.501,12.229c-0.49,0.541-30.301,34.135-30.301,94.634
		C17.332,412.49,13.452,416.37,8.666,416.37z"/>
</g>
<path style="fill:#778082;" d="M320.404,66.022c0,0,23.893,70.007-9.469,135.869c-15.551,3.079-29.505,7.227-39.431-2.698
	c-9.925-9.925-0.27-52.151-15.418-52.151c13.133-0.07-21.815-57.51-11.542-64.164C262.789,71.061,289.898,55.084,320.404,66.022z"/>
<g>
	<path style="fill:#F9DCA4;" d="M151.766,350.212c-0.654,0-1.317-0.031-1.987-0.095c-20.55-1.94-45.113-36.632-49.828-43.566
		c-2.691-3.957-1.664-9.348,2.294-12.039c3.959-2.692,9.348-1.664,12.039,2.294c14.636,21.49,30.668,35.449,37.127,36.057
		c0.805,0.073,0.994-0.076,1.344-0.425c9.846-9.845,35.693-91.108,50.901-145.664c1.285-4.609,6.064-7.305,10.674-6.02
		s7.306,6.065,6.021,10.674c-0.094,0.336-9.483,33.957-20.696,69.085c-23.229,72.766-31.522,81.059-34.644,84.181
		C161.375,348.324,156.829,350.212,151.766,350.212z"/>
	<path style="fill:#F9DCA4;" d="M360.233,350.212c-5.063,0-9.609-1.887-13.241-5.52c-3.122-3.123-11.416-11.416-34.644-84.181
		c-11.214-35.128-20.603-68.749-20.696-69.085c-1.285-4.61,1.411-9.389,6.021-10.674c4.608-1.284,9.389,1.412,10.674,6.02
		c15.209,54.559,41.056,135.821,50.901,145.664c0.349,0.35,0.536,0.499,1.345,0.425c5.434-0.513,20.991-12.327,37.125-36.057
		c2.691-3.957,8.082-4.983,12.039-2.294c3.959,2.691,4.985,8.081,2.294,12.039c-4.715,6.934-29.278,41.625-49.828,43.566
		C361.551,350.179,360.888,350.212,360.233,350.212z"/>
</g>
<path style="fill:#FCE8BB;" d="M286.687,374.154c0,0-1.098,11.936-3.697,28.181c-2.195,13.692-5.465,30.434-10.041,45.663
	c-4.622,15.344-10.572,29.129-18.106,36.662c-7.533-7.533-13.484-21.318-18.094-36.662c-4.576-15.229-7.845-31.971-10.041-45.663
	c-2.6-16.245-3.697-28.181-3.697-28.181L286.687,374.154L286.687,374.154z"/>
<path style="fill:#E7C080;" d="M286.682,374.157c0,0-1.098,11.936-3.697,28.181h-56.282c-2.6-16.246-3.697-28.181-3.697-28.181
	L286.682,374.157L286.682,374.157z"/>
<g>
	<path style="fill:#EC589B;" d="M272.949,447.998c-4.622,15.344-10.572,29.129-18.106,36.662
		c-7.533-7.533-13.484-21.318-18.094-36.662H272.949z"/>
	<path style="fill:#EC589B;" d="M310.928,201.889v77.807H201.23v-77.807c0-18.291,8.955-34.49,22.728-44.45
		c9.024-6.551,20.116-10.399,32.121-10.399c11.855,0,22.843,3.755,31.809,10.168c2.496,1.768,4.83,3.744,6.979,5.904
		C304.793,173.038,310.928,186.753,310.928,201.889z"/>
</g>
<path style="fill:#D3468D;" d="M267.906,148.338c-3.809-0.838-7.763-1.292-11.824-1.292l0,0c-30.291,0-54.846,24.555-54.846,54.846
	v77.805h23.648v-77.805C224.885,175.662,243.301,153.746,267.906,148.338z"/>
<polygon style="fill:#EAA0E3;" points="319.963,375.31 192.201,375.31 201.236,279.696 310.928,279.696 "/>
<circle style="fill:#F9DCA4;" cx="255.711" cy="80.72" r="66.322"/>
<g>
	<path style="fill:#E7C080;" d="M287.888,157.208c-9.532,5.303-20.509,8.319-32.179,8.319c-11.508,0-22.323-2.935-31.751-8.088
		c9.024-6.551,20.116-10.399,32.121-10.399C267.934,147.04,278.922,150.795,287.888,157.208z"/>
	<path style="fill:#E7C080;" d="M219.585,80.72c0-31.434,21.875-57.741,51.226-64.579c-4.853-1.13-9.902-1.747-15.098-1.747
		c-36.631,0-66.326,29.695-66.326,66.326s29.695,66.326,66.326,66.326c5.196,0,10.245-0.617,15.098-1.747
		C241.459,138.461,219.585,112.154,219.585,80.72z"/>
</g>
<path style="fill:#778082;" d="M322.039,80.72c-73.613,7.545-112.944-47.165-112.944-47.165
	c11.982-11.843,28.447-19.157,46.622-19.157C292.344,14.398,322.039,44.093,322.039,80.72z"/>
<polyline style="fill:#D57CD4;" points="224.885,279.696 224.115,375.31 192.201,375.31 201.236,279.696 "/>
<g>
	<path style="fill:#778082;" d="M219.336,90.539c-3.47,0-6.356-2.884-6.355-6.355c0.001-3.463,2.89-6.34,6.349-6.349
		c3.454-0.009,6.358,2.898,6.361,6.349C225.692,87.647,222.796,90.539,219.336,90.539z"/>
	<path style="fill:#778082;" d="M269.54,90.539c-3.593,0-6.551-3.107-6.345-6.704c0.184-3.208,2.817-5.813,6.02-5.987
		c3.442-0.187,6.475,2.557,6.669,5.99C276.088,87.429,273.124,90.539,269.54,90.539z"/>
</g>
<path style="fill:#FFFFFF;" d="M221.406,110.132c4.775,0.99,8.484,1.771,12.065,2.179c3.54,0.432,6.8,0.639,10.075,0.638
	c3.276-0.013,6.532-0.22,10.069-0.654c3.577-0.409,7.285-1.183,12.072-2.162c-1.021,4.808-4.247,8.688-8.246,11.409
	c-4.035,2.706-8.971,4.124-13.894,4.116c-4.922-0.007-9.856-1.424-13.887-4.133C225.662,118.801,222.437,114.928,221.406,110.132z"
	/>
<g>
	<path style="fill:#FCE8BB;" d="M76.726,422.848v74.757c-4.911-4.911-9.151-12.375-12.814-21.191
		c-4.807-11.578-8.596-25.477-11.531-38.938c-1.086-4.991-2.057-9.902-2.912-14.628H76.726z"/>
	<path style="fill:#FCE8BB;" d="M103.982,422.848c-0.855,4.726-1.826,9.636-2.912,14.628c-2.935,13.461-6.725,27.361-11.531,38.938
		c-3.663,8.816-7.903,16.28-12.814,21.191v-90.217L103.982,422.848z"/>
</g>
<path style="fill:#E7C080;" d="M103.982,422.848c-0.855,4.726-1.826,9.636-2.912,14.628H52.38
	c-1.086-4.991-2.057-9.902-2.912-14.628l27.257-15.46L103.982,422.848z"/>
<path style="fill:#53C489;" d="M24.977,415.041l-1.169,7.804h105.827l-1.169-7.804c-4.296-28.683-6.453-57.646-6.453-86.649v-9.632
	c0-25.014-20.278-45.291-45.291-45.291l0,0c-25.014,0-45.291,20.278-45.291,45.291v9.632
	C31.43,357.395,29.273,386.358,24.977,415.041z"/>
<path style="fill:#41AF73;" d="M32.6,318.761v9.632c0,29.003-2.157,57.966-6.453,86.649l-1.169,7.804h27.838l0.553-7.804
	c2.036-28.683,3.058-57.646,3.058-86.649v-9.632c0-25.014,9.61-45.291,21.463-45.291l0,0C52.876,273.468,32.6,293.746,32.6,318.761z
	"/>
<path style="fill:#E7C080;" d="M108.751,286.741c-7.418,9.539-19.002,15.686-32.024,15.686c-13.033,0-24.628-6.146-32.035-15.697
	c8.191-8.191,19.511-13.264,32.024-13.264S100.559,278.54,108.751,286.741z"/>
<g>
	<path style="fill:#F7C957;" d="M218.07,179.917c-3.142,0-5.781-2.631-5.777-5.777c0.003-3.14,2.641-5.766,5.777-5.774
		c3.144-0.008,5.774,2.639,5.777,5.774C223.85,177.293,221.219,179.917,218.07,179.917z"/>
	<path style="fill:#F7C957;" d="M247.673,199.097c-3.131-0.612-5.176-3.651-4.564-6.771l0,0c0.612-3.131,3.651-5.176,6.782-4.564
		l0,0c3.131,0.612,5.165,3.651,4.552,6.782l0,0c-0.532,2.75-2.946,4.668-5.662,4.668
		C248.415,199.218,248.03,199.176,247.673,199.097z M261.503,194.499c-0.659-3.12,1.352-6.182,4.472-6.84l0,0
		c3.131-0.647,6.182,1.352,6.84,4.483l0,0c0.647,3.12-1.352,6.182-4.472,6.829l0,0c-0.404,0.081-0.796,0.127-1.19,0.127
		C264.453,199.097,262.052,197.141,261.503,194.499z M228.619,191.356c-2.681-1.722-3.455-5.292-1.733-7.973l0,0
		c1.722-2.692,5.292-3.466,7.984-1.745l0,0c2.681,1.722,3.455,5.303,1.733,7.984l0,0c-1.098,1.722-2.958,2.658-4.864,2.658
		C230.634,192.268,229.551,191.954,228.619,191.356z M279.285,189.357c-1.756-2.658-1.017-6.239,1.653-7.996l0,0
		c2.658-1.756,6.238-1.017,7.996,1.652l0,0c1.756,2.658,1.017,6.251-1.653,7.996l0,0c-0.971,0.647-2.08,0.959-3.165,0.959
		C282.179,191.949,280.353,190.98,279.285,189.357z"/>
	<path style="fill:#F7C957;" d="M297.668,179.455c-3.205,0-5.885-2.755-5.77-5.963c0.113-3.181,2.881-5.745,6.065-5.578
		c3.03,0.157,5.49,2.721,5.483,5.766C303.438,176.826,300.825,179.455,297.668,179.455z"/>
</g>
<path style="fill:#EAA0E3;" d="M480.563,318.755v80.638l-90.575-16.384v-64.254c0-15.934,8.238-29.949,20.682-38.014
	c7.083-4.599,15.529-7.268,24.611-7.268c9.082,0,17.528,2.669,24.599,7.268c2.681,1.733,5.165,3.744,7.418,5.997
	C475.502,294.93,480.563,306.253,480.563,318.755z"/>
<path style="fill:#D57CD4;" d="M444.307,274.372c-2.917-0.59-5.937-0.902-9.03-0.902l0,0c-25.014,0-45.291,20.278-45.291,45.291
	v64.251h18.058v-64.251C408.045,296.838,423.619,278.557,444.307,274.372z"/>
<path style="fill:#E7C080;" d="M459.88,280.741c-7.395,3.721-15.76,5.823-24.599,5.823c-8.851,0-17.205-2.103-24.611-5.823
	c7.083-4.599,15.529-7.268,24.611-7.268C444.363,273.473,452.81,276.142,459.88,280.741z"/>
<rect x="389.984" y="383.017" style="fill:#F7C957;" width="90.587" height="47.013"/>
<rect x="389.984" y="383.017" style="fill:#D5A03C;" width="19.735" height="47.013"/>
<path style="fill:#53C489;" d="M89.539,476.415c-3.663,8.816-7.903,16.28-12.814,21.191c-4.911-4.911-9.151-12.375-12.814-21.191
	H89.539z"/>
<path style="fill:#EC589B;" d="M260.138,472.567h-10.579c-6.678,0-12.093,5.414-12.093,12.093l0,0h34.765l0,0
	C272.231,477.981,266.817,472.567,260.138,472.567z"/>
<path style="fill:#53C489;" d="M82.015,485.513H71.436c-6.678,0-12.093,5.414-12.093,12.093l0,0h34.765l0,0
	C94.107,490.927,88.694,485.513,82.015,485.513z"/>
<path style="fill:#D5A03C;" d="M435.278,402.996L435.278,402.996c-2.485,0-4.499,2.014-4.499,4.499v22.529h8.999v-22.529
	C439.777,405.01,437.763,402.996,435.278,402.996z"/>
<circle style="fill:#F9DCA4;" cx="76.721" cy="224.444" r="54.803"/>
<path style="fill:#E7C080;" d="M50.657,224.44c0-25.294,17.14-46.575,40.436-52.889c-4.581-1.242-9.396-1.917-14.37-1.917
	c-30.269,0-54.806,24.538-54.806,54.806s24.538,54.806,54.806,54.806c4.974,0,9.789-0.675,14.37-1.917
	C67.797,271.014,50.657,249.735,50.657,224.44z"/>
<g>
	<path style="fill:#F7C957;" d="M76.722,169.629c0,43.067-53.215,41.663-53.215,41.663
		C29.387,187.371,50.987,169.629,76.722,169.629z"/>
	<path style="fill:#F7C957;" d="M129.936,211.293c0,0-53.215,1.404-53.215-41.663C102.456,169.629,124.056,187.371,129.936,211.293z
		"/>
</g>
<g>
	<path style="fill:#778082;" d="M55.164,233.518c-3.458,0-6.356-2.896-6.355-6.355c0.001-3.546,3.035-6.457,6.569-6.342
		c3.45,0.112,6.252,3.094,6.133,6.55C61.395,230.758,58.559,233.518,55.164,233.518z"/>
	<path style="fill:#778082;" d="M98.274,233.518c-3.612,0-6.586-3.157-6.34-6.771c0.241-3.545,3.473-6.279,7.008-5.893
		c3.001,0.327,5.402,2.764,5.662,5.775C104.919,230.291,101.945,233.518,98.274,233.518z"/>
</g>
<circle style="fill:#F9DCA4;" cx="435.278" cy="224.444" r="54.803"/>
<path style="fill:#E7C080;" d="M409.212,224.44c0-25.294,17.14-46.575,40.436-52.889c-4.581-1.242-9.396-1.917-14.37-1.917
	c-30.269,0-54.806,24.538-54.806,54.806s24.538,54.806,54.806,54.806c4.974,0,9.789-0.675,14.37-1.917
	C426.353,271.014,409.212,249.735,409.212,224.44z"/>
<g>
	<path style="fill:#778082;" d="M456.83,222.472c-3.588,0-6.55-3.137-6.345-6.713c0.199-3.466,3.286-6.227,6.766-5.989
		c3.3,0.225,5.934,3.04,5.933,6.347C463.184,219.571,460.292,222.472,456.83,222.472z"/>
	<path style="fill:#778082;" d="M413.72,222.472c-3.455,0-6.353-2.904-6.355-6.355c-0.002-3.469,2.898-6.353,6.36-6.361
		c3.457-0.008,6.353,2.912,6.35,6.361C420.074,219.567,417.175,222.472,413.72,222.472z"/>
</g>
<g>
</g>
<g>
</g>
<g>
</g>
<g>
</g>
<g>
</g>
<g>
</g>
<g>
</g>
<g>
</g>
<g>
</g>
<g>
</g>
<g>
</g>
<g>
</g>
<g>
</g>
<g>
</g>
<g>
</g>
</svg>
