<?xml version="1.0" encoding="iso-8859-1"?>
<!-- Generator: Adobe Illustrator 19.0.0, SVG Export Plug-In . SVG Version: 6.00 Build 0)  -->
<svg version="1.1" id="Layer_1" xmlns="http://www.w3.org/2000/svg" xmlns:xlink="http://www.w3.org/1999/xlink" x="0px" y="0px"
	 viewBox="0 0 512 512" style="enable-background:new 0 0 512 512;" xml:space="preserve">
<polyline style="fill:#D5A03C;" points="374.716,65.266 374.716,0 77.644,65.266 77.644,512 "/>
<rect x="77.644" y="65.266" style="fill:#F4C063;" width="356.712" height="446.734"/>
<g>
	<path style="fill:#EC589B;" d="M256,192.526c0-32.884,22.641-59.541,50.57-59.541c34.912,0,63.212,33.322,63.212,74.426
		c0,51.38-60.888,101.612-113.783,128.654c-52.895-27.042-113.782-77.274-113.782-128.654c0-41.104,28.302-74.426,63.212-74.426
		C233.359,132.985,256,159.643,256,192.526z"/>
	<path style="fill:#EC589B;" d="M193.202,461.752c-3.419,0-6.189-2.77-6.189-6.189v-62.018l-23.482,34.571
		c-1.152,1.696-3.07,2.712-5.12,2.712c-2.05,0-3.968-1.015-5.12-2.712l-23.482-34.571v62.018c0,3.419-2.77,6.189-6.189,6.189
		s-6.189-2.77-6.189-6.189v-82.145c0-2.718,1.772-5.117,4.369-5.916c2.596-0.798,5.413,0.19,6.94,2.438l29.671,43.683l29.671-43.683
		c1.527-2.248,4.341-3.236,6.94-2.438c2.597,0.799,4.369,3.198,4.369,5.916v82.145C199.391,458.98,196.62,461.752,193.202,461.752z"
		/>
	<path style="fill:#EC589B;" d="M384.844,461.752c-3.419,0-6.189-2.77-6.189-6.189v-62.018l-23.482,34.571
		c-1.152,1.696-3.07,2.712-5.12,2.712s-3.968-1.015-5.12-2.712l-23.482-34.571v62.018c0,3.419-2.77,6.189-6.189,6.189
		s-6.189-2.77-6.189-6.189v-82.145c0-2.718,1.772-5.117,4.369-5.916c2.596-0.798,5.413,0.19,6.94,2.438l29.671,43.683l29.671-43.683
		c1.527-2.248,4.341-3.236,6.94-2.438c2.597,0.799,4.369,3.198,4.369,5.916v82.145C391.033,458.98,388.261,461.752,384.844,461.752z
		"/>
	<path style="fill:#EC589B;" d="M254.232,461.752c-22.597,0-40.98-21.201-40.98-47.262s18.384-47.262,40.98-47.262
		s40.979,21.201,40.979,47.262S276.829,461.752,254.232,461.752z M254.232,379.607c-15.772,0-28.602,15.648-28.602,34.884
		s12.83,34.884,28.602,34.884c15.771,0,28.601-15.648,28.601-34.884S270.003,379.607,254.232,379.607z"/>
</g>
<g>
</g>
<g>
</g>
<g>
</g>
<g>
</g>
<g>
</g>
<g>
</g>
<g>
</g>
<g>
</g>
<g>
</g>
<g>
</g>
<g>
</g>
<g>
</g>
<g>
</g>
<g>
</g>
<g>
</g>
</svg>
