<?xml version="1.0" encoding="iso-8859-1"?>
<!-- Generator: Adobe Illustrator 19.0.0, SVG Export Plug-In . SVG Version: 6.00 Build 0)  -->
<svg version="1.1" id="Layer_1" xmlns="http://www.w3.org/2000/svg" xmlns:xlink="http://www.w3.org/1999/xlink" x="0px" y="0px"
	 viewBox="0 0 512 512" style="enable-background:new 0 0 512 512;" xml:space="preserve">
<path style="fill:#EC589B;" d="M476.474,264.026V435.51c0,42.244-98.72,76.49-220.472,76.49c-56.682,0-108.386-7.414-147.44-19.625
	c-44.837-14-73.032-34.282-73.032-56.865V264.026L476.474,264.026L476.474,264.026z"/>
<g>
	<path style="fill:#D3468D;" d="M476.474,111.445v171.484c0,42.244-98.72,76.49-220.472,76.49
		c-56.682,0-108.386-7.414-147.44-19.625c-44.837-14-73.032-34.282-73.032-56.865V111.445H476.474z"/>
	<path style="fill:#D3468D;" d="M108.562,264.026v228.349c-44.837-14-73.032-34.282-73.032-56.865V264.026L108.562,264.026
		L108.562,264.026z"/>
</g>
<path style="fill:#F7C957;" d="M503.379,144.258v80.811c0,47.394-110.76,85.827-247.377,85.827
	c-69.197,0-131.76-9.861-176.658-25.748C35.59,269.663,8.625,248.456,8.625,225.069v-80.811
	C8.625,144.258,503.379,144.258,503.379,144.258z"/>
<path style="fill:#D5A03C;" d="M79.344,144.258v140.891C35.59,269.663,8.625,248.456,8.625,225.069v-80.811
	C8.625,144.258,79.344,144.258,79.344,144.258z"/>
<ellipse style="fill:#F4C063;" cx="255.998" cy="144.263" rx="247.377" ry="85.827"/>
<path style="fill:#EC589B;" d="M377.739,138.784c11.906-26.186,6.343-44.228-2.447-55.83c-8.875-11.724-12.831-26.296-11.651-40.954
	C365.26,21.962,353.452,0,326.608,0c-22.936,0-43.34,48.088-56.244,87.653h-28.731C228.728,48.088,208.325,0,185.389,0
	c-26.844,0-38.653,21.962-37.034,42.001c1.181,14.658-2.776,29.23-11.651,40.954c-8.79,11.602-14.353,29.644-2.447,55.83H377.739z"
	/>
<g>
	<path style="fill:#D3468D;" d="M293.745,120.225c-3.25,0-6.396-1.74-8.046-4.801c-2.392-4.439-0.733-9.977,3.707-12.369
		l38.983-21.005c4.441-2.391,9.977-0.733,12.369,3.707c2.392,4.44,0.733,9.977-3.707,12.369l-38.983,21.005
		C296.69,119.873,295.207,120.225,293.745,120.225z"/>
	<path style="fill:#D3468D;" d="M218.25,118.698c-1.463,0-2.945-0.352-4.323-1.094l-38.983-21.005
		c-4.439-2.392-6.099-7.93-3.707-12.369c2.392-4.44,7.931-6.098,12.369-3.707l38.983,21.005c4.439,2.392,6.099,7.93,3.707,12.369
		C224.646,116.959,221.499,118.698,218.25,118.698z"/>
</g>
<path style="fill:#EC589B;" d="M276.385,87.653h-40.773c-12.946,0-23.44,10.494-23.44,23.44v27.691h87.653v-27.691
	C299.825,98.147,289.33,87.653,276.385,87.653z"/>
<path style="fill:#D3468D;" d="M258.746,87.653h-23.134c-12.946,0-23.44,10.494-23.44,23.44v27.691h23.134v-27.691
	C235.306,98.147,245.8,87.653,258.746,87.653z"/>
<g>
</g>
<g>
</g>
<g>
</g>
<g>
</g>
<g>
</g>
<g>
</g>
<g>
</g>
<g>
</g>
<g>
</g>
<g>
</g>
<g>
</g>
<g>
</g>
<g>
</g>
<g>
</g>
<g>
</g>
</svg>
