<?xml version="1.0" encoding="iso-8859-1"?>
<!-- Generator: Adobe Illustrator 19.0.0, SVG Export Plug-In . SVG Version: 6.00 Build 0)  -->
<svg version="1.1" id="Layer_1" xmlns="http://www.w3.org/2000/svg" xmlns:xlink="http://www.w3.org/1999/xlink" x="0px" y="0px"
	 viewBox="0 0 512 512" style="enable-background:new 0 0 512 512;" xml:space="preserve">
<path style="fill:#EAA0E3;" d="M349.601,146.124c0,8.652-1.274,17.094-3.707,25.244c-16.568,55.691-86.874,97.526-171.094,97.526
	c-13.446,0-26.53-1.064-39.099-3.087c-5.694-0.912-11.283-2.023-16.743-3.309c-33.803,35.708-87.389,47.319-87.389,47.319
	c21.046-21.046,31.02-47.81,35.697-66.904C26.331,220.452,0,185.445,0,146.124C0,78.32,78.257,23.354,174.801,23.354
	S349.601,78.32,349.601,146.124z"/>
<path style="fill:#D57CD4;" d="M345.895,171.368c-16.568,55.691-86.874,97.526-171.094,97.526c-13.446,0-26.53-1.064-39.099-3.087
	c16.568-55.691,86.886-97.526,171.094-97.526C320.242,168.281,333.326,169.345,345.895,171.368z"/>
<path style="fill:#F4C063;" d="M337.199,202.183c96.54,0,174.801,54.966,174.801,122.77c0,39.323-26.326,74.325-67.271,96.795
	c4.684,19.083,14.655,45.852,35.701,66.898c0,0-53.587-11.612-87.388-47.324c-17.536,4.15-36.315,6.4-55.844,6.4
	c-96.54,0-174.801-54.966-174.801-122.77S240.66,202.183,337.199,202.183z"/>
<path style="fill:#EC589B;" d="M337.199,302.542c0-22.086,15.206-39.989,33.964-39.989c23.448,0,42.455,22.379,42.455,49.986
	c0,34.508-40.893,68.245-76.419,86.406c-35.526-18.162-76.419-51.899-76.419-86.406c0-27.607,19.008-49.986,42.455-49.986
	C321.993,262.553,337.199,280.456,337.199,302.542z"/>
<g>
</g>
<g>
</g>
<g>
</g>
<g>
</g>
<g>
</g>
<g>
</g>
<g>
</g>
<g>
</g>
<g>
</g>
<g>
</g>
<g>
</g>
<g>
</g>
<g>
</g>
<g>
</g>
<g>
</g>
</svg>
