<?xml version="1.0" encoding="iso-8859-1"?>
<!-- Generator: Adobe Illustrator 19.0.0, SVG Export Plug-In . SVG Version: 6.00 Build 0)  -->
<svg version="1.1" id="Layer_1" xmlns="http://www.w3.org/2000/svg" xmlns:xlink="http://www.w3.org/1999/xlink" x="0px" y="0px"
	 viewBox="0 0 512 512" style="enable-background:new 0 0 512 512;" xml:space="preserve">
<g>
	<polygon style="fill:#C3F6F9;" points="448.701,164.873 63.291,164.873 219.394,31.319 256.002,0 292.609,31.319 	"/>
	<rect x="29.249" y="194" style="fill:#C3F6F9;" width="453.506" height="317.989"/>
</g>
<g>
	<polygon style="fill:#C1DDE8;" points="463.56,210.424 482.755,194 441.509,194 	"/>
	<polyline style="fill:#C1DDE8;" points="48.444,210.436 29.249,194 83.342,194 	"/>
</g>
<path style="fill:#9EE7E7;" d="M448.701,164.873H63.291L219.394,31.319c22.249,19.96,36.608,51.496,36.608,86.984
	c0-35.487,14.359-67.024,36.608-86.984L448.701,164.873z"/>
<path style="fill:#EC589B;" d="M48.444,210.436c-0.891-6.059-1.361-12.142-1.361-18.226c0-75.48,51.966-136.661,116.063-136.661
	c51.28,0,92.85,48.955,92.85,109.329c0-60.374,41.571-109.329,92.85-109.329c64.109,0,116.075,61.181,116.075,136.661
	c0,6.083-0.47,12.154-1.361,18.213L252.92,391.616L48.444,210.436z"/>
<polyline style="fill:#C3F6F9;" points="482.752,512 255.998,317.999 29.245,512 "/>
<polygon style="fill:#9EE7E7;" points="482.755,504.075 482.755,511.989 473.479,511.989 256.002,325.927 38.524,511.989 
	29.249,511.989 29.249,504.075 256.002,310.075 "/>
<g>
</g>
<g>
</g>
<g>
</g>
<g>
</g>
<g>
</g>
<g>
</g>
<g>
</g>
<g>
</g>
<g>
</g>
<g>
</g>
<g>
</g>
<g>
</g>
<g>
</g>
<g>
</g>
<g>
</g>
</svg>
