<?xml version="1.0" encoding="iso-8859-1"?>
<!-- Generator: Adobe Illustrator 19.0.0, SVG Export Plug-In . SVG Version: 6.00 Build 0)  -->
<svg version="1.1" id="Layer_1" xmlns="http://www.w3.org/2000/svg" xmlns:xlink="http://www.w3.org/1999/xlink" x="0px" y="0px"
	 viewBox="0 0 512 512" style="enable-background:new 0 0 512 512;" xml:space="preserve">
<path style="fill:#EAA0E3;" d="M276.695,38.615C254.387,17.091,226.25,3.191,194.86,0.481
	C112.845-6.602,39.647,65.44,31.384,161.367c-8.275,95.939,51.505,179.436,133.52,186.507c28.728,2.481,56.383-4.758,80.534-19.32"
	/>
<path style="fill:#D57CD4;" d="M84.232,161.367C91.203,80.435,144.396,16.503,210.109,2.749c-4.99-1.041-10.07-1.82-15.249-2.268
	C112.845-6.602,39.647,65.44,31.384,161.367c-8.275,95.939,51.505,179.436,133.52,186.507c12.782,1.105,25.35,0.273,37.494-2.261
	C128.414,330.138,76.482,251.21,84.232,161.367z"/>
<path style="fill:#D3468D;" d="M300.185,375.541l-11.902-23.337l-23.337,11.902c-12.888,6.573-18.009,22.35-11.436,35.239l0,0
	c6.573,12.888,22.35,18.009,35.239,11.436l0,0C301.638,404.206,306.758,388.429,300.185,375.541z"/>
<path style="fill:#D57CD4;" d="M181.765,367.922L164.9,347.875l-20.046,16.863c-11.072,9.313-12.497,25.839-3.182,36.911l0,0
	c9.313,11.072,25.839,12.497,36.911,3.182l0,0C189.654,395.519,191.079,378.994,181.765,367.922z"/>
<path style="fill:#EC589B;" d="M493.355,183.341c-0.265,4.095-0.662,8.227-1.205,12.358c-1.566,12.166-4.312,24.452-8.275,36.677
	c-29.727,91.591-117.296,145.24-195.589,119.825c-78.305-25.415-117.681-120.259-87.966-211.838
	c3.975-12.226,8.974-23.777,14.852-34.557c1.987-3.662,4.083-7.239,6.276-10.708C261.077,32.115,331.625-0.323,395.91,20.539
	C460.207,41.415,498.258,109.096,493.355,183.341z"/>
<path style="fill:#D3468D;" d="M335.257,352.203c-78.298-25.409-117.679-120.254-87.956-211.839
	c21.762-67.059,74.538-113.771,131.977-124.011C305.584,2.88,227.959,55.22,200.327,140.363
	c-29.721,91.585,9.658,186.43,87.956,211.839c20.968,6.805,42.601,7.934,63.612,4.189
	C346.318,355.372,340.764,353.99,335.257,352.203z"/>
<g>
	<path style="fill:#C14287;" d="M375.674,142.352c-7.01-2.277-14.466-0.662-20.477,3.698c-0.205-0.638-0.446-1.289-0.699-1.915
		c-2.65-6.444-7.528-11.106-13.731-13.117c-7.36-2.385-15.309-1.301-22.392,3.059c-6.781,4.192-11.973,10.949-14.587,19.031
		c-6.589,20.284,9.985,46.434,26.174,62.659c1.024,1.024,2.409,1.59,3.842,1.59c0.277,0,0.566-0.024,0.855-0.072
		c22.633-3.626,51.397-15.056,57.985-35.34C398.163,164.936,390.55,147.17,375.674,142.352z M382.335,178.596
		c-3.312,10.214-18.983,22.476-46.639,27.511c-19.429-20.308-24.909-39.448-21.597-49.65c1.831-5.637,5.372-10.311,9.973-13.153
		c2.867-1.771,5.926-2.674,8.901-2.674c1.518,0,3.011,0.229,4.445,0.699c3.132,1.012,5.637,3.481,7.058,6.938
		c1.542,3.758,1.638,8.179,0.253,12.455c-0.181,0.554-0.265,1.12-0.265,1.674c0,2.289,1.457,4.409,3.746,5.155
		c2.843,0.915,5.902-0.638,6.83-3.481c2.746-8.492,10.515-13.611,17.297-11.407C381.516,155.638,386.009,167.274,382.335,178.596z"
		/>
	<path style="fill:#C14287;" d="M294.31,117.287l-23.56,72.62c-0.747,2.301-2.879,3.758-5.155,3.758
		c-0.554,0-1.12-0.084-1.674-0.265c-2.855-0.927-4.409-3.987-3.493-6.83l18.863-58.118l-38.701,25.054
		c-1.361,0.891-3.059,1.108-4.613,0.602c-1.554-0.494-2.794-1.674-3.385-3.204l-17.417-45.097c1.987-3.662,4.083-7.239,6.276-10.708
		c0.988,0.59,1.795,1.518,2.24,2.674l16.61,43.013l45.916-29.727c1.927-1.241,4.421-1.144,6.239,0.253
		C294.273,112.71,295.02,115.106,294.31,117.287z"/>
	<path style="fill:#C14287;" d="M493.355,183.341c-0.265,4.095-0.662,8.227-1.205,12.358l-40.592,26.27
		c-1.361,0.891-3.059,1.108-4.613,0.602c-1.554-0.494-2.794-1.674-3.385-3.204l-16.61-42.989l-18.863,58.106
		c-0.747,2.289-2.867,3.746-5.155,3.746c-0.554,0-1.12-0.084-1.674-0.265c-2.843-0.927-4.409-3.975-3.481-6.83l23.572-72.62
		c0.711-2.192,2.71-3.686,4.999-3.746s4.384,1.325,5.216,3.457l19.706,51.023l38.701-25.066
		C491.019,183.511,492.211,183.234,493.355,183.341z"/>
</g>
<path style="fill:#E6E6E6;" d="M96.669,512c-0.348,0-0.7-0.03-1.054-0.093c-3.275-0.578-5.462-3.701-4.884-6.978
	c7.686-43.559,65.02-41.552,120.465-39.604c32.251,1.13,65.6,2.299,89.711-4.869c17.887-5.318,29.102-13.886,33.336-25.465
	c7.275-19.896-7.597-42.916-7.747-43.146c-0.076-0.116-0.148-0.234-0.216-0.354c-0.157-0.276-16.239-28.328-39.294-33.408
	c-3.249-0.715-5.301-3.929-4.586-7.178c0.715-3.247,3.928-5.302,7.178-4.586c27.591,6.08,45.455,36.223,47.101,39.095
	c1.689,2.635,17.918,28.977,8.875,53.713c-5.613,15.352-19.481,26.411-41.216,32.874c-25.998,7.729-60.347,6.525-93.565,5.361
	c-52.619-1.846-102.314-3.587-108.181,29.661C102.078,509.945,99.537,512,96.669,512z"/>
<ellipse style="fill:#F786A1;" cx="444.514" cy="119.668" rx="18.164" ry="21.619"/>
<path style="fill:#E6E6E6;" d="M24.244,497.272c-3.326,0-6.023-2.697-6.023-6.023c0-15.754,14.701-30.407,41.396-41.263
	c23.987-9.755,54.997-15.349,85.078-15.349c29.065,0,43.447-5.937,50.392-10.916c10.387-7.448,15.026-15.99,13.79-25.391
	c-2.375-18.068-25.306-36.976-46.103-44.819c-3.112-1.173-4.684-4.647-3.51-7.759c1.173-3.111,4.643-4.686,7.759-3.51
	c12.172,4.589,24.662,12.37,34.271,21.345c11.309,10.565,18.06,22.037,19.524,33.173c1.279,9.728-0.93,23.999-18.715,36.751
	c-12.192,8.741-31.508,13.174-57.412,13.174c-57.749,0-114.429,22.075-114.429,44.567C30.267,494.575,27.57,497.272,24.244,497.272z
	"/>
<g>
</g>
<g>
</g>
<g>
</g>
<g>
</g>
<g>
</g>
<g>
</g>
<g>
</g>
<g>
</g>
<g>
</g>
<g>
</g>
<g>
</g>
<g>
</g>
<g>
</g>
<g>
</g>
<g>
</g>
</svg>
