<?xml version="1.0" encoding="iso-8859-1"?>
<!-- Generator: Adobe Illustrator 19.0.0, SVG Export Plug-In . SVG Version: 6.00 Build 0)  -->
<svg version="1.1" id="Layer_1" xmlns="http://www.w3.org/2000/svg" xmlns:xlink="http://www.w3.org/1999/xlink" x="0px" y="0px"
	 viewBox="0 0 512 512" style="enable-background:new 0 0 512 512;" xml:space="preserve">
<g>
	<path style="fill:#F4C063;" d="M323.611,270.809c-4.783,0-8.658-3.877-8.658-8.658v-17.244c0-11.251-9.154-20.405-20.405-20.405
		h-77.093c-11.251,0-20.405,9.154-20.405,20.405v17.244c0,4.782-3.875,8.658-8.658,8.658c-4.783,0-8.658-3.877-8.658-8.658v-17.244
		c0-20.8,16.922-37.722,37.722-37.722h77.093c20.8,0,37.722,16.922,37.722,37.722v17.244
		C332.269,266.933,328.392,270.809,323.611,270.809z"/>
	<path style="fill:#F4C063;" d="M382.746,270.809c-4.783,0-8.658-3.877-8.658-8.658V135.405
		c0-65.115-52.973-118.088-118.088-118.088S137.912,70.29,137.912,135.405v126.746c0,4.782-3.876,8.658-8.658,8.658
		c-4.783,0-8.658-3.877-8.658-8.658V135.405C120.595,60.742,181.337,0,256,0s135.405,60.742,135.405,135.405v126.746
		C391.405,266.933,387.529,270.809,382.746,270.809z"/>
</g>
<path style="fill:#EC589B;" d="M302.372,410.117h112.036v81.898c0,11.038-8.948,19.985-19.985,19.985H117.576
	c-11.038,0-19.985-8.948-19.985-19.985v-81.898h112.049"/>
<polyline style="fill:#D3468D;" points="302.372,399.751 414.408,399.751 414.408,439.344 97.592,439.344 97.592,399.751 
	209.641,399.751 "/>
<path style="fill:#EC589B;" d="M300.464,410.117h107.428h18.524V291.192c0-19.229-15.585-34.814-34.825-34.814H120.409
	c-19.229,0-34.825,15.585-34.825,34.814v118.925h18.524h107.44"/>
<g>
	<path style="fill:#D3468D;" d="M150.048,256.379h-29.638c-19.229,0-34.825,15.585-34.825,34.814v118.925h18.524h11.115V291.191
		C115.223,271.964,130.819,256.379,150.048,256.379z"/>
	<path style="fill:#D3468D;" d="M116.081,410.117h10.115V512h-8.62c-11.038,0-19.985-8.948-19.985-19.985v-81.898h10.116"/>
</g>
<path style="fill:#F4C063;" d="M282.779,356.4h-53.553c-9.764,0-17.679,7.915-17.679,17.679v68.371
	c0,9.764,7.915,17.679,17.679,17.679h53.553c9.764,0,17.679-7.915,17.679-17.679V374.08
	C300.459,364.315,292.543,356.4,282.779,356.4z"/>
<rect x="239.953" y="384.802" style="fill:#D8B356;" width="32.105" height="46.923"/>
<g>
</g>
<g>
</g>
<g>
</g>
<g>
</g>
<g>
</g>
<g>
</g>
<g>
</g>
<g>
</g>
<g>
</g>
<g>
</g>
<g>
</g>
<g>
</g>
<g>
</g>
<g>
</g>
<g>
</g>
</svg>
