<?xml version="1.0" encoding="iso-8859-1"?>
<!-- Generator: Adobe Illustrator 19.0.0, SVG Export Plug-In . SVG Version: 6.00 Build 0)  -->
<svg version="1.1" id="Layer_1" xmlns="http://www.w3.org/2000/svg" xmlns:xlink="http://www.w3.org/1999/xlink" x="0px" y="0px"
	 viewBox="0 0 512.001 512.001" style="enable-background:new 0 0 512.001 512.001;" xml:space="preserve">
<g>
	<path style="fill:#666666;" d="M413.896,196.49c-4.979,0-9.013-4.036-9.013-9.013v-26.702c0-17.416,14.169-31.584,31.585-31.584
		h19.144c4.979,0,9.013,4.036,9.013,9.013c0,4.978-4.034,9.013-9.013,9.013h-19.144c-7.476,0-13.558,6.082-13.558,13.557v26.702
		C422.909,192.454,418.875,196.49,413.896,196.49z"/>
	<rect x="167.984" y="438.179" style="fill:#666666;" width="145.054" height="18.027"/>
	
		<rect x="118.727" y="327.319" transform="matrix(-0.8872 -0.4614 0.4614 -0.8872 70.3371 757.2692)" style="fill:#666666;" width="18.027" height="85.435"/>
	
		<rect x="310.468" y="362.015" transform="matrix(-0.4893 -0.8721 0.8721 -0.4893 201.5805 860.098)" style="fill:#666666;" width="84.303" height="18.026"/>
</g>
<path style="fill:#F4C063;" d="M263.938,367.546c0.012,0.001,0.024,0.004,0.036,0.005c-0.925,0.12-1.851,0.228-2.776,0.324
	l-2.055,0.216c-0.481,0.048-0.961,0.096-1.442,0.132c-1.526,0.132-3.065,0.252-4.603,0.349c-0.781,0.048-1.55,0.096-2.319,0.132
	c-0.685,0.036-1.358,0.072-2.043,0.096c-0.192,0.012-0.397,0.012-0.601,0.024c-0.577,0.024-1.154,0.036-1.731,0.048
	c-0.697,0.024-1.406,0.036-2.103,0.048c-0.949,0.012-1.911,0.024-2.86,0.024c-100.228,0-181.468-81.24-181.468-181.468
	c0-100.216,81.24-181.468,181.468-181.468v181.468h181.468C422.909,280.079,353.541,356.466,263.938,367.546z"/>
<g>
	<circle style="fill:#778082;" cx="112.186" cy="447.192" r="64.809"/>
	<circle style="fill:#778082;" cx="368.836" cy="447.192" r="64.809"/>
</g>
<g>
	<circle style="fill:#EC589B;" cx="112.186" cy="447.192" r="35.068"/>
	<circle style="fill:#EC589B;" cx="368.836" cy="447.192" r="35.068"/>
</g>
<g>
	<path style="fill:#666666;" d="M368.832,491.272c-24.307,0-44.082-19.775-44.082-44.081s19.775-44.081,44.082-44.081
		s44.081,19.775,44.081,44.081S393.137,491.272,368.832,491.272z M368.832,421.136c-14.367,0-26.056,11.688-26.056,26.054
		s11.688,26.054,26.056,26.054c14.366,0,26.054-11.688,26.054-26.054S383.198,421.136,368.832,421.136z"/>
	<path style="fill:#666666;" d="M112.184,491.272c-24.307,0-44.081-19.775-44.081-44.081s19.774-44.081,44.081-44.081
		s44.082,19.775,44.082,44.081S136.491,491.272,112.184,491.272z M112.184,421.136c-14.366,0-26.054,11.688-26.054,26.054
		s11.688,26.054,26.054,26.054c14.367,0,26.056-11.688,26.056-26.054S126.552,421.136,112.184,421.136z"/>
</g>
<path style="fill:#D5A03C;" d="M263.974,367.55c-0.925,0.12-1.851,0.228-2.776,0.324l-2.055,0.216
	c-0.481,0.048-0.961,0.096-1.442,0.132c-1.526,0.132-3.065,0.252-4.603,0.349c-0.781,0.048-1.55,0.096-2.319,0.132
	c-0.685,0.036-1.358,0.072-2.043,0.096c-0.192,0.012-0.397,0.012-0.601,0.024c-0.577,0.024-1.154,0.036-1.731,0.048
	c-0.697,0.024-1.406,0.036-2.103,0.048c-0.949,0.012-1.911,0.024-2.86,0.024c-100.228,0-181.468-81.24-181.468-181.468
	c0-100.216,81.24-181.468,181.468-181.468v5.636C163.013,31.691,105.04,102.812,105.04,187.477
	C105.04,280.073,174.382,356.458,263.974,367.55z"/>
<circle style="fill:#F9DCA4;" cx="319.864" cy="117.63" r="58.487"/>
<path style="fill:#E7C080;" d="M284.206,117.63c0-28.393,20.235-52.052,47.07-57.364c-3.693-0.731-7.509-1.122-11.417-1.122
	c-32.301,0-58.487,26.185-58.487,58.487s26.185,58.487,58.487,58.487c3.908,0,7.724-0.391,11.417-1.122
	C304.442,169.682,284.206,146.023,284.206,117.63z"/>
<path style="fill:#EC589B;" d="M296.831,134.648c4.967,1.03,8.825,1.842,12.549,2.267c3.682,0.449,7.072,0.665,10.479,0.663
	c3.407-0.013,6.794-0.228,10.472-0.68c3.721-0.425,7.577-1.231,12.556-2.249c-1.062,5.001-4.418,9.036-8.577,11.866
	c-4.197,2.815-9.331,4.289-14.451,4.281c-5.12-0.007-10.251-1.481-14.444-4.299C301.258,143.666,297.905,139.638,296.831,134.648z"
	/>
<g>
	<path style="fill:#778082;" d="M291.37,114.775c-3.927,0-7.209-3.287-7.211-7.211c-0.001-3.818,3.103-7.05,6.915-7.202
		c3.903-0.156,7.301,2.947,7.498,6.849C298.775,111.259,295.424,114.775,291.37,114.775z"/>
	<path style="fill:#778082;" d="M345.846,114.775c-4.055,0-7.408-3.512-7.201-7.564c0.19-3.754,3.342-6.8,7.104-6.851
		c3.837-0.053,7.106,3.027,7.3,6.851C353.253,111.265,349.904,114.775,345.846,114.775z"/>
</g>
<path style="fill:#D5A03C;" d="M247.45,161.536V6.009c0-3.318-2.69-6.009-6.009-6.009s-6.009,2.691-6.009,6.009v152.376
	c-1.232,0.01-2.434,0.13-3.615,0.316L156.137,27.165c-1.655-2.876-5.329-3.867-8.205-2.212c-2.877,1.655-3.867,5.329-2.212,8.205
	l75.012,130.374c-1.216,0.957-2.336,2.026-3.346,3.197L84.374,90.312c-2.879-1.654-6.551-0.66-8.203,2.217
	c-1.654,2.877-0.661,6.55,2.216,8.203l133.653,76.785c-0.266,1.28-0.401,2.604-0.454,3.95H59.973c-3.319,0-6.009,2.691-6.009,6.009
	c0,3.318,2.69,6.009,6.009,6.009h154.279c4.006,7.699,12.042,12.965,21.321,12.965c13.275,0,24.035-10.761,24.035-24.035
	C259.607,173.465,254.705,165.673,247.45,161.536z"/>
<g>
</g>
<g>
</g>
<g>
</g>
<g>
</g>
<g>
</g>
<g>
</g>
<g>
</g>
<g>
</g>
<g>
</g>
<g>
</g>
<g>
</g>
<g>
</g>
<g>
</g>
<g>
</g>
<g>
</g>
</svg>
