<?xml version="1.0" encoding="iso-8859-1"?>
<!-- Generator: Adobe Illustrator 19.0.0, SVG Export Plug-In . SVG Version: 6.00 Build 0)  -->
<svg version="1.1" id="Layer_1" xmlns="http://www.w3.org/2000/svg" xmlns:xlink="http://www.w3.org/1999/xlink" x="0px" y="0px"
	 viewBox="0 0 512 512" style="enable-background:new 0 0 512 512;" xml:space="preserve">
<path style="fill:#B7744F;" d="M236.583,116.805V61.278H50.175c-32.064,0-56.098,29.76-48.89,61.004
	c4.507,19.534,13.209,38.051,29.7,45.546"/>
<polyline style="fill:#F4C063;" points="236.587,450.718 221.493,450.718 30.985,450.718 30.985,116.805 236.587,116.805 
	236.587,217.754 "/>
<polyline style="fill:#74C194;" points="236.587,217.749 221.493,217.749 30.985,217.749 30.985,116.805 236.587,116.805 
	236.587,147.322 "/>
<polyline style="fill:#EC589B;" points="236.587,450.718 221.493,450.718 30.985,450.718 30.985,351.666 236.587,351.666 
	236.587,381.612 "/>
<path style="fill:#C3F6F9;" d="M430.657,217.749H128.465l22.701,171.35c4.672,35.27,34.748,61.624,70.327,61.624h116.137
	c35.578,0,65.654-26.353,70.327-61.624L430.657,217.749z"/>
<path style="fill:#ACE3E5;" d="M218.593,389.098l-22.701-171.351h-67.426l22.701,171.351c4.672,35.27,34.748,61.624,70.327,61.624
	h67.426C253.342,450.723,223.266,424.369,218.593,389.098z"/>
<g>
	<path style="fill:#93CECE;" d="M228.681,366.622c-2.797,0-5.065-2.268-5.065-5.065v-40.879l-20.083,23.591
		c-0.962,1.13-2.371,1.782-3.857,1.782s-2.894-0.652-3.857-1.782l-20.084-23.591v40.881c0,2.797-2.268,5.065-5.065,5.065
		c-2.797,0-5.065-2.268-5.065-5.065v-54.644c0-2.123,1.324-4.02,3.316-4.753c1.99-0.732,4.23-0.146,5.605,1.47l25.149,29.542
		l25.148-29.542c1.377-1.617,3.617-2.203,5.605-1.47c1.993,0.733,3.316,2.63,3.316,4.753v54.644
		C233.746,364.355,231.478,366.622,228.681,366.622z"/>
	<path style="fill:#93CECE;" d="M388.451,366.622c-2.797,0-5.065-2.268-5.065-5.065v-40.879l-20.083,23.591
		c-0.962,1.13-2.372,1.782-3.857,1.782c-1.486,0-2.894-0.652-3.857-1.782l-20.083-23.591v40.879c0,2.797-2.268,5.065-5.065,5.065
		s-5.065-2.268-5.065-5.065v-54.644c0-2.123,1.324-4.02,3.316-4.753c1.99-0.732,4.231-0.146,5.605,1.47l25.148,29.541l25.148-29.541
		c1.377-1.617,3.616-2.203,5.605-1.47c1.993,0.733,3.316,2.63,3.316,4.753v54.644C393.516,364.355,391.249,366.622,388.451,366.622z
		"/>
	<path style="fill:#93CECE;" d="M279.561,366.622c-18.785,0-34.07-14.528-34.07-32.386s15.284-32.386,34.07-32.386
		s34.071,14.528,34.071,32.386S298.348,366.622,279.561,366.622z M279.561,311.979c-13.201,0-23.94,9.985-23.94,22.256
		c0,12.272,10.739,22.256,23.94,22.256c13.201,0,23.941-9.985,23.941-22.256C303.502,321.963,292.762,311.979,279.561,311.979z"/>
</g>
<path style="fill:#C3F6F9;" d="M432.349,408.517c-2.395,0-4.773-1.013-6.444-2.983c-13.833-16.316-19.293-30.471-16.691-43.275
	c3.909-19.239,24.699-29.711,44.805-39.839c17.848-8.991,36.304-18.288,39.706-31.961c3.553-14.284-0.509-24.243-4.543-30.082
	c-5.011-7.255-13.096-12.517-20.595-13.406c-21.894-2.591-45.414,18.499-45.648,18.712c-3.446,3.13-8.784,2.885-11.921-0.558
	c-3.137-3.442-2.898-8.77,0.539-11.912c1.186-1.084,29.388-26.524,59.018-23.007c12.284,1.455,24.737,9.339,32.499,20.575
	c6.01,8.7,12.111,23.355,7.036,43.754c-5.273,21.192-27.246,32.26-48.495,42.963c-16.508,8.315-33.578,16.913-35.855,28.123
	c-1.482,7.297,2.899,17.052,13.024,28.994c3.015,3.556,2.576,8.883-0.979,11.898C436.218,407.861,434.278,408.517,432.349,408.517z"
	/>
<path style="fill:#E5C3AA;" d="M306.218,75.938c0.916,2.718,1.101,5.908,0.211,8.995c-0.83,3.117-2.61,5.916-4.481,8.32
	c-1.902,2.388-3.906,4.467-5.641,6.4c-0.848,0.981-1.643,1.902-2.326,2.806c-0.687,0.899-1.191,1.792-1.621,2.609
	c-0.814,1.67-1.093,3.068-1.09,4.664c-0.025,0.779,0.098,1.679,0.219,2.487c0.176,0.791,0.352,1.509,0.651,2.126
	c0.548,1.246,1.361,2.34,2.704,3.678c1.338,1.325,3.192,2.786,5.342,4.46c1.082,0.855,2.226,1.777,3.418,2.791
	c1.185,1.039,2.419,2.199,3.626,3.52c2.397,2.639,4.731,6.207,5.804,10.214c0.586,1.981,0.816,3.996,0.875,5.927
	c0.022,1.924-0.113,3.78-0.516,5.71c-0.742,3.837-2.68,7.638-5.13,10.363c-2.449,2.769-5.145,4.633-7.658,6.157
	c-2.518,1.516-4.917,2.706-7.098,3.969c-2.184,1.249-4.167,2.559-5.847,4.329c-1.705,1.754-2.985,4.088-3.954,6.832
	c-0.923-2.718-1.111-5.91-0.223-9.002c0.827-3.12,2.608-5.923,4.477-8.331c1.902-2.391,3.906-4.469,5.64-6.403
	c0.846-0.983,1.646-1.899,2.325-2.804c0.682-0.902,1.191-1.79,1.618-2.606c0.814-1.667,1.087-3.063,1.088-4.654
	c0-0.397-0.003-0.8-0.06-1.234c-0.016-0.422-0.106-0.837-0.158-1.249c-0.177-0.79-0.346-1.508-0.647-2.123
	c-0.544-1.245-1.353-2.339-2.695-3.676c-1.333-1.327-3.186-2.789-5.333-4.467c-2.148-1.712-4.612-3.652-7.036-6.318
	c-2.396-2.638-4.727-6.206-5.799-10.21c-0.59-1.979-0.813-3.993-0.872-5.923c0.006-0.956-0.014-1.907,0.105-2.852
	c0.048-0.474,0.086-0.941,0.154-1.417l0.257-1.436c0.745-3.832,2.679-7.632,5.128-10.353c2.451-2.762,5.137-4.635,7.655-6.153
	c2.517-1.517,4.916-2.707,7.098-3.971c2.184-1.253,4.167-2.565,5.845-4.338C303.981,81.017,305.255,78.682,306.218,75.938z"/>
<rect x="30.985" y="116.808" style="fill:#B7744F;" width="16.5" height="333.913"/>
<g>
</g>
<g>
</g>
<g>
</g>
<g>
</g>
<g>
</g>
<g>
</g>
<g>
</g>
<g>
</g>
<g>
</g>
<g>
</g>
<g>
</g>
<g>
</g>
<g>
</g>
<g>
</g>
<g>
</g>
</svg>
