<?xml version="1.0" encoding="iso-8859-1"?>
<!-- Generator: Adobe Illustrator 19.0.0, SVG Export Plug-In . SVG Version: 6.00 Build 0)  -->
<svg version="1.1" id="Layer_1" xmlns="http://www.w3.org/2000/svg" xmlns:xlink="http://www.w3.org/1999/xlink" x="0px" y="0px"
	 viewBox="0 0 512 512" style="enable-background:new 0 0 512 512;" xml:space="preserve">
<path style="fill:#E7C080;" d="M382.04,0c62.015,0,97.56,88.484,97.56,147.474s-21.176,198.144-21.176,251.841
	S450.861,512,383.552,512s-72.603-62.771-72.603-89.241c0-26.469,2.269-127.054-14.369-208.732C279.942,132.349,268.598,0,382.04,0z
	"/>
<path style="fill:#F9DCA4;" d="M383.552,499.167c-24.17,0-40.564-9.066-50.121-27.714c-6.402-12.493-9.649-28.876-9.649-48.694
	c0-2.315,0.018-5.202,0.038-8.598c0.21-34.713,0.769-126.92-14.667-202.698c-16.946-83.193-12.723-143.302,12.212-173.829
	C335,20.947,354.847,12.833,382.04,12.833c51.721,0,84.726,79.744,84.726,134.642c0,29.494-5.534,80.572-10.887,129.967
	c-5.291,48.835-10.288,94.963-10.288,121.874c0,22.422-1.242,50.748-10.93,70.923C425.184,489.976,408.945,499.167,383.552,499.167z
	"/>
<g>
	<path style="fill:#F4C063;" d="M476.191,205.395c-3.01,33.307-7.466,71.945-11.164,107.212l-84.929-55.799l-38.685-25.42
		l-44.74-29.399l-2.753-1.797c-6.626-36.55-11.141-80.298-4.596-117.571l52.894,34.742l30.682,20.159l83.424,54.819L476.191,205.395
		z"/>
	<path style="fill:#F4C063;" d="M380.097,256.807l-32.362,27.369l-38.801,32.817c-1.925-33.272-5.565-69.682-12.354-102.965
		c-0.898-4.468-1.797-9.1-2.66-13.836l2.753,1.797l44.74,29.399L380.097,256.807z"/>
	<path style="fill:#F4C063;" d="M479.6,147.47c0,15.02-1.373,35.235-3.415,57.923l-19.864-13.057l-83.426-54.816l87.362-73.873
		C472.907,90.716,479.6,121.867,479.6,147.47z"/>
</g>
<path style="fill:#D5A03C;" d="M347.735,284.176l-38.801,32.817c-1.925-33.272-5.565-69.682-12.354-102.965
	c-0.898-4.468-1.797-9.1-2.66-13.836c-6.626-36.55-11.141-80.298-4.596-117.571l52.894,34.742
	c-2.182,25.14-4.328,66.87-0.805,114.025C342.684,248.454,344.702,266.222,347.735,284.176z"/>
<path style="fill:#EC589B;" d="M488.336,139.842c-26.276-16.641-74.926,38.261-74.926,38.261h-58.203
	c0,0-48.65-54.902-74.926-38.261c-26.276,16.641,0,57.806,0,57.806s-26.276,41.165,0,57.806
	c26.276,16.641,74.926-38.261,74.926-38.261h58.203c0,0,48.65,54.902,74.926,38.261c26.276-16.641,0-57.806,0-57.806
	S514.612,156.483,488.336,139.842z"/>
<path style="fill:#E7C080;" d="M129.961,0c-62.015,0-97.56,88.484-97.56,147.474s21.176,198.144,21.176,251.841
	S61.141,512,128.45,512s72.603-62.771,72.603-89.241c0-26.469-2.269-127.054,14.369-208.732S243.403,0,129.961,0z"/>
<path style="fill:#F9DCA4;" d="M128.448,499.167c-25.391,0-41.632-9.192-51.108-28.928c-9.688-20.175-10.93-48.501-10.93-70.923
	c0-26.91-4.998-73.037-10.29-121.874c-5.352-49.395-10.887-100.473-10.887-129.967c0-54.898,33.006-134.642,84.727-134.642
	c27.194,0,47.04,8.114,60.673,24.803c24.936,30.527,29.158,90.636,12.212,173.829c-15.435,75.776-14.877,167.983-14.665,202.695
	c0.021,3.396,0.039,6.283,0.039,8.599c0,19.817-3.247,36.201-9.649,48.694C169.014,490.102,152.619,499.167,128.448,499.167z"/>
<g>
	<path style="fill:#F4C063;" d="M218.078,200.192l-2.753,1.797L131.9,256.807l-37.308,24.51l-47.609,31.289
		c-3.698-35.267-8.166-73.905-11.164-107.212l19.856-13.054l29.06-19.097l54.376-35.722l83.564-54.901
		C229.219,119.894,224.704,163.642,218.078,200.192z"/>
	<path style="fill:#F4C063;" d="M131.902,256.805l71.162,60.192c1.928-33.273,5.571-69.688,12.353-102.971
		c0.908-4.469,1.804-9.098,2.666-13.84l-2.757,1.804L131.902,256.805z"/>
	<path style="fill:#F4C063;" d="M139.11,137.521l-54.376,35.722l-29.06,19.097l-19.856,13.054
		c-2.042-22.691-3.418-42.908-3.418-57.922c0-25.607,6.696-56.756,19.342-83.821l42.523,35.943L139.11,137.521z"/>
</g>
<path style="fill:#D5A03C;" d="M94.592,281.318l-47.609,31.288c-3.698-35.267-8.166-73.905-11.164-107.212
	c-2.042-22.691-3.418-42.908-3.418-57.922c0-25.607,6.696-56.756,19.342-83.821l42.523,35.943
	c-4.701,18.876-8.726,43.433-9.531,73.648C83.918,203.586,86.344,239.611,94.592,281.318z"/>
<path style="fill:#EC589B;" d="M231.716,197.645c0,0,26.284,41.17,0,57.806c-20.404,12.926-54.317-17.313-68.433-31.452
	c-4.06-4.071-6.486-6.801-6.486-6.801H98.594c0,0-1.902,2.147-5.156,5.46c-13.206,13.451-48.683,46.151-69.775,32.793
	c-26.272-16.636,0-57.806,0-57.806s-26.272-41.158,0-57.806c21.232-13.439,57.071,19.809,70.043,33.085
	c3.092,3.15,4.888,5.18,4.888,5.18h58.202c0,0,2.31-2.613,6.195-6.521c13.953-14.011,48.181-44.751,68.725-31.743
	C257.999,156.487,231.716,197.645,231.716,197.645z"/>
<g>
	<path style="fill:#D3468D;" d="M172.008,197.983c0,9.776-3.243,18.782-8.726,26.015c-4.06-4.071-6.486-6.801-6.486-6.801H98.594
		c0,0-1.902,2.147-5.156,5.46c-4.9-6.988-7.758-15.493-7.758-24.674c0-9.345,2.975-17.989,8.026-25.059
		c3.092,3.15,4.888,5.18,4.888,5.18h58.202c0,0,2.31-2.613,6.195-6.521C168.649,178.886,172.008,188.032,172.008,197.983z"/>
	<path style="fill:#D3468D;" d="M428.623,197.979c0,9.776-3.243,18.782-8.726,26.015c-4.06-4.071-6.486-6.801-6.486-6.801h-58.202
		c0,0-1.902,2.147-5.156,5.46c-4.9-6.988-7.758-15.493-7.758-24.674c0-9.345,2.975-17.989,8.026-25.059
		c3.091,3.15,4.888,5.18,4.888,5.18h58.202c0,0,2.31-2.613,6.195-6.521C425.263,178.881,428.623,188.027,428.623,197.979z"/>
</g>
<g>
</g>
<g>
</g>
<g>
</g>
<g>
</g>
<g>
</g>
<g>
</g>
<g>
</g>
<g>
</g>
<g>
</g>
<g>
</g>
<g>
</g>
<g>
</g>
<g>
</g>
<g>
</g>
<g>
</g>
</svg>
