<?xml version="1.0" encoding="iso-8859-1"?>
<!-- Generator: Adobe Illustrator 19.0.0, SVG Export Plug-In . SVG Version: 6.00 Build 0)  -->
<svg version="1.1" id="Layer_1" xmlns="http://www.w3.org/2000/svg" xmlns:xlink="http://www.w3.org/1999/xlink" x="0px" y="0px"
	 viewBox="0 0 512.001 512.001" style="enable-background:new 0 0 512.001 512.001;" xml:space="preserve">
<g>
	<path style="fill:#F9DCA4;" d="M226.518,365.62c-0.712,0-1.434-0.035-2.164-0.103c-22.373-2.112-49.118-39.882-54.251-47.432
		c-2.93-4.309-1.813-10.178,2.497-13.108c4.309-2.93,10.176-1.813,13.108,2.497c15.934,23.398,33.389,38.595,40.422,39.256
		c0.876,0.079,1.082-0.082,1.463-0.463c10.72-10.72,38.86-99.193,55.417-158.592c1.398-5.018,6.602-7.953,11.621-6.555
		c5.02,1.399,7.954,6.603,6.555,11.621c-0.102,0.365-10.323,36.97-22.533,75.216c-25.29,79.223-34.319,88.253-37.719,91.652
		C236.98,363.565,232.031,365.62,226.518,365.62z"/>
	<path style="fill:#F9DCA4;" d="M114.898,431.694c1.13,6.193,2.432,12.722,3.922,19.289c5.549,24.39,13.753,49.401,25.37,61.018
		v-80.308H114.898z"/>
	<path style="fill:#F9DCA4;" d="M144.191,415.085V512c11.593-11.618,19.798-36.628,25.346-61.018
		c1.502-6.566,2.805-13.095,3.934-19.289L144.191,415.085z"/>
</g>
<path style="fill:#E7C080;" d="M114.898,431.694c1.13,6.193,2.432,12.722,3.922,19.289h50.717
	c1.502-6.566,2.805-13.095,3.934-19.289l-29.281-16.607v16.607H114.898z"/>
<path style="fill:#EAA0E3;" d="M121.426,511.994h45.512l0,0c0-10.283-8.335-18.618-18.618-18.618h-8.276
	C129.762,493.376,121.426,501.711,121.426,511.994L121.426,511.994z"/>
<path style="fill:#F9DCA4;" d="M71.073,424.734c5.141,0,9.31-4.168,9.31-9.31c0-65.661,32.211-101.291,32.537-101.643
	c3.489-3.777,3.255-9.667-0.523-13.154c-3.778-3.489-9.668-3.255-13.156,0.522c-1.53,1.656-37.476,41.41-37.476,114.277
	C61.764,420.565,65.931,424.734,71.073,424.734z"/>
<path style="fill:#EAA0E3;" d="M95.535,319.871v86.625l97.299-17.601v-69.024c0-17.116-8.85-32.172-22.218-40.836
	c-7.608-4.94-16.683-7.808-26.438-7.808c-9.756,0-18.829,2.867-26.426,7.808c-2.88,1.861-5.549,4.021-7.969,6.442
	C100.971,294.277,95.535,306.441,95.535,319.871z"/>
<path style="fill:#D57CD4;" d="M134.483,272.193c3.134-0.634,6.378-0.97,9.7-0.97l0,0c26.871,0,48.655,21.783,48.655,48.655v69.021
	h-19.399v-69.021C173.438,296.328,156.706,276.689,134.483,272.193z"/>
<path style="fill:#E7C080;" d="M117.753,279.034c7.944,3.996,16.93,6.255,26.426,6.255c9.508,0,18.482-2.259,26.438-6.255
	c-7.608-4.94-16.683-7.808-26.438-7.808C134.422,271.228,125.349,274.095,117.753,279.034z"/>
<rect x="95.531" y="388.899" style="fill:#F7C957;" width="97.311" height="50.506"/>
<g>
	<rect x="171.637" y="388.899" style="fill:#D8B356;" width="21.202" height="50.506"/>
	<path style="fill:#D8B356;" d="M143.998,410.366h0.368c2.568,0,4.649,2.081,4.649,4.649v24.385h-9.667v-24.385
		C139.349,412.447,141.431,410.366,143.998,410.366z"/>
</g>
<circle style="fill:#F9DCA4;" cx="144.187" cy="218.551" r="58.876"/>
<path style="fill:#E7C080;" d="M172.183,218.554c0-27.172-18.413-50.032-43.438-56.817c4.922-1.334,10.094-2.058,15.437-2.058
	c32.516,0,58.875,26.359,58.875,58.875s-26.359,58.875-58.875,58.875c-5.344,0-10.516-0.725-15.437-2.058
	C153.77,268.585,172.183,245.726,172.183,218.554z"/>
<g>
	<path style="fill:#778082;" d="M121.029,216.44c3.854,0,7.036-3.371,6.815-7.212c-0.214-3.724-3.531-6.689-7.269-6.433
		c-3.545,0.241-6.375,3.266-6.374,6.819C114.204,213.322,117.311,216.44,121.029,216.44z"/>
	<path style="fill:#778082;" d="M167.34,216.44c3.711,0,6.825-3.12,6.827-6.827c0.002-3.727-3.113-6.824-6.831-6.833
		c-3.713-0.008-6.824,3.127-6.823,6.833C160.514,213.32,163.629,216.44,167.34,216.44z"/>
	<path style="fill:#778082;" d="M410.123,56.209c0,0,26.014,76.22-10.309,147.928c-16.931,3.352-32.123,7.868-42.93-2.937
		c-10.806-10.806-0.295-56.779-16.786-56.779c14.298-0.078-23.751-62.614-12.567-69.859
		C347.395,61.694,376.909,44.301,410.123,56.209z"/>
</g>
<g>
	<path style="fill:#F9DCA4;" d="M441.279,356.001c-2.291,0-4.584-0.874-6.332-2.623c-5.312-5.312-14.482-19.838-32.716-84.384
		c-9.794-34.67-17.585-67.671-17.662-68.001c-1.134-4.814,1.85-9.636,6.664-10.77c4.812-1.134,9.636,1.85,10.77,6.664
		c12.565,53.347,35.021,133.238,45.61,143.826c3.497,3.497,3.497,9.168,0,12.664C445.863,355.127,443.572,356.001,441.279,356.001z"
		/>
	<path style="fill:#F9DCA4;" d="M373.414,391.687c0,0-1.195,12.994-4.026,30.682c-2.39,14.907-5.95,33.135-10.932,49.716
		c-5.032,16.707-11.51,31.714-19.713,39.916c-8.202-8.202-14.681-23.21-19.7-39.916c-4.981-16.58-8.542-34.809-10.932-49.716
		c-2.831-17.687-4.025-30.682-4.025-30.682H373.414z"/>
</g>
<path style="fill:#E7C080;" d="M373.408,391.691c0,0-1.195,12.994-4.025,30.682h-61.276c-2.831-17.687-4.025-30.682-4.025-30.682
	H373.408z"/>
<path style="fill:#EF607B;" d="M358.456,472.084c-5.032,16.707-11.51,31.714-19.713,39.916c-8.202-8.202-14.681-23.21-19.7-39.916
	H358.456z"/>
<path style="fill:#EC589B;" d="M399.807,204.134v84.712H280.373v-84.712c0-19.914,9.749-37.551,24.745-48.394
	c9.824-7.133,21.902-11.322,34.971-11.322c12.907,0,24.87,4.088,34.632,11.07c2.718,1.925,5.258,4.076,7.599,6.429
	C393.126,172.722,399.807,187.655,399.807,204.134z"/>
<path style="fill:#D3468D;" d="M352.966,145.83c-4.148-0.912-8.452-1.407-12.874-1.407l0,0c-32.98,0-59.713,26.735-59.713,59.713
	v84.71h25.748v-84.71C306.126,175.58,326.178,151.719,352.966,145.83z"/>
<polygon style="fill:#EAA0E3;" points="409.643,392.947 270.541,392.947 280.379,288.846 399.806,288.846 "/>
<circle style="fill:#F9DCA4;" cx="339.693" cy="72.213" r="72.213"/>
<g>
	<path style="fill:#E7C080;" d="M374.722,155.488c-10.378,5.774-22.329,9.058-35.035,9.058c-12.53,0-24.304-3.195-34.569-8.806
		c9.824-7.133,21.902-11.322,34.971-11.322C352.997,144.417,364.96,148.506,374.722,155.488z"/>
	<path style="fill:#E7C080;" d="M300.357,72.211c0-34.224,23.816-62.866,55.773-70.309C350.847,0.671,345.349,0,339.691,0
		C299.81,0,267.48,32.33,267.48,72.211s32.33,72.212,72.211,72.212c5.657,0,11.156-0.671,16.438-1.902
		C324.172,135.078,300.357,106.436,300.357,72.211z"/>
</g>
<path style="fill:#778082;" d="M411.903,72.212c-80.146,8.215-122.968-51.351-122.968-51.351
	c13.046-12.894,30.971-20.857,50.76-20.857C379.573,0.004,411.903,32.334,411.903,72.212z"/>
<polyline style="fill:#D57CD4;" points="306.126,288.846 305.289,392.947 270.541,392.947 280.379,288.846 "/>
<g>
	<path style="fill:#778082;" d="M300.086,82.902c-3.778,0-6.92-3.14-6.919-6.919c0.002-3.771,3.146-6.903,6.913-6.912
		c3.76-0.01,6.923,3.156,6.925,6.912C307.006,79.754,303.852,82.902,300.086,82.902z"/>
	<path style="fill:#778082;" d="M354.745,82.902c-3.913,0-7.132-3.383-6.907-7.299c0.201-3.491,3.067-6.329,6.554-6.519
		c3.748-0.204,7.051,2.783,7.261,6.52C361.873,79.515,358.647,82.902,354.745,82.902z"/>
</g>
<path style="fill:#FFFFFF;" d="M302.339,104.234c5.199,1.078,9.237,1.928,13.135,2.372c3.854,0.47,7.403,0.696,10.969,0.694
	c3.565-0.014,7.111-0.239,10.962-0.713c3.895-0.445,7.932-1.288,13.142-2.355c-1.112,5.235-4.624,9.459-8.978,12.421
	c-4.393,2.946-9.767,4.489-15.127,4.481c-5.359-0.007-10.731-1.55-15.12-4.499C306.973,113.673,303.462,109.456,302.339,104.234z"/>
<path style="fill:#EF607B;" d="M345.179,498.835H332.32c-6.901,0-12.496,5.595-12.496,12.496v0.67h37.85v-0.67
	C357.675,504.43,352.08,498.835,345.179,498.835z"/>
<g>
</g>
<g>
</g>
<g>
</g>
<g>
</g>
<g>
</g>
<g>
</g>
<g>
</g>
<g>
</g>
<g>
</g>
<g>
</g>
<g>
</g>
<g>
</g>
<g>
</g>
<g>
</g>
<g>
</g>
</svg>
