<?xml version="1.0" encoding="iso-8859-1"?>
<!-- Generator: Adobe Illustrator 19.0.0, SVG Export Plug-In . SVG Version: 6.00 Build 0)  -->
<svg version="1.1" id="Layer_1" xmlns="http://www.w3.org/2000/svg" xmlns:xlink="http://www.w3.org/1999/xlink" x="0px" y="0px"
	 viewBox="0 0 512.001 512.001" style="enable-background:new 0 0 512.001 512.001;" xml:space="preserve">
<g>
	<path style="fill:#EC589B;" d="M331.969,98.693c-0.704,0-1.421-0.13-2.116-0.403c-2.977-1.17-4.442-4.531-3.272-7.508
		c25.815-65.714,26.572-84.842,26.578-85.028c0-3.198,2.592-5.754,5.79-5.754c3.199,0,5.791,2.63,5.791,5.83
		c0,0.796-0.312,20.284-27.381,89.187C336.464,97.298,334.28,98.693,331.969,98.693z"/>
	<path style="fill:#EC589B;" d="M180.531,98.693c-2.312,0-4.495-1.393-5.392-3.675C148.07,26.115,147.759,6.627,147.759,5.831
		c0-3.198,2.593-5.791,5.791-5.791c3.198,0,5.791,2.593,5.791,5.791c0.003,0.11,0.762,19.238,26.578,84.952
		c1.17,2.977-0.295,6.338-3.273,7.508C181.951,98.563,181.235,98.693,180.531,98.693z"/>
</g>
<path style="fill:#F7C957;" d="M438.732,429.821v82.18H73.269v-82.18c0-1.459,0.012-2.907,0.035-4.355
	c0.046-4.089,0.185-8.166,0.394-12.208c3.637-70.841,30.44-133.284,70.482-174.253c19.204-19.645,31.702-44.907,36.034-72.034
	c3.672-22.992,3.44-49.042-6.394-74.072c-4.019-10.228-7.448-19.332-10.355-27.44c4.471-1.587,16.158-5.131,30.81-4.911h0.012
	c18.683,0.29,42.22,6.695,61.725,31.123c34.76-43.575,82.354-29.826,92.524-26.212c-2.907,8.108-6.336,17.212-10.355,27.44
	c-9.834,25.031-10.066,51.08-6.382,74.072c4.32,27.127,16.818,52.389,36.023,72.034c40.216,41.142,67.076,103.956,70.528,175.168
	c0.197,4.031,0.324,8.073,0.359,12.15C438.72,427.492,438.732,428.651,438.732,429.821z"/>
<g>
	<path style="fill:#D5A03C;" d="M211.344,126.011c23.3,30.659,26.36,48.434,0,74.794c0,0-94.427,135.534-56.411,311.194H73.271
		v-82.176c0-77.627,27.777-146.682,70.907-190.817c19.204-19.646,31.701-44.908,36.041-72.035
		c3.667-22.993,3.433-49.041-6.402-74.07c-4.023-10.228-7.444-19.339-10.35-27.446c4.464-1.582,16.151-5.127,30.806-4.905h0.013
		C194.286,60.549,192.079,100.663,211.344,126.011z"/>
	<path style="fill:#D5A03C;" d="M363.943,389.4c-2.381,0-4.405-1.824-4.61-4.239c-3.148-36.93-10.352-72.171-20.831-101.912
		c-0.85-2.414,0.416-5.059,2.83-5.91c2.412-0.853,5.058,0.417,5.91,2.83c10.738,30.472,18.112,66.505,21.324,104.204
		c0.218,2.549-1.673,4.793-4.223,5.01C364.208,389.394,364.075,389.4,363.943,389.4z"/>
	<path style="fill:#D5A03C;" d="M333.792,263.653c-1.762,0-3.447-1.011-4.222-2.721c-3.163-6.974-6.551-13.566-10.068-19.592
		c-1.29-2.21-0.546-5.047,1.666-6.337c2.209-1.29,5.048-0.546,6.337,1.666c3.676,6.299,7.212,13.174,10.505,20.436
		c1.057,2.33,0.024,5.076-2.305,6.133C335.084,263.52,334.433,263.653,333.792,263.653z"/>
	<path style="fill:#D5A03C;" d="M156.02,341.236c-0.286,0-0.577-0.027-0.869-0.081c-2.513-0.477-4.166-2.902-3.689-5.415
		c7.359-38.803,19.274-73.061,34.456-99.071c1.289-2.209,4.126-2.955,6.337-1.666c2.21,1.29,2.956,4.127,1.666,6.337
		c-14.656,25.108-26.19,58.348-33.354,96.125C160.145,339.689,158.202,341.236,156.02,341.236z"/>
	<path style="fill:#D5A03C;" d="M149.48,389.4c-0.132,0-0.265-0.005-0.398-0.017c-2.549-0.218-4.44-2.46-4.223-5.01
		c0.639-7.503,1.45-15.026,2.409-22.362c0.332-2.537,2.656-4.323,5.195-3.993c2.537,0.332,4.325,2.658,3.993,5.195
		c-0.942,7.196-1.737,14.581-2.365,21.946C153.886,387.576,151.861,389.4,149.48,389.4z"/>
</g>
<g>
	<path style="fill:#EC589B;" d="M438.732,455.002v12.394c-22.459,13.204-50.108,13.055-72.393-0.417
		c-11.27,6.811-23.907,10.216-36.544,10.216c-12.648,0-25.285-3.405-36.556-10.216c-22.54,13.621-50.548,13.621-73.088,0
		c-22.54,13.621-50.536,13.621-73.088,0c-22.784,13.76-51.138,13.61-73.794-0.452v-12.475l3.614,2.409
		c20.444,13.726,46.853,13.726,67.285,0.012c1.749-1.181,4.031-1.181,5.791-0.012c20.444,13.726,46.853,13.726,67.285,0.012
		c1.749-1.181,4.042-1.181,5.791-0.012c20.467,13.726,46.864,13.726,67.285,0.023c1.784-1.205,4.124-1.193,5.884,0.035
		c20.386,13.668,46.783,13.668,67.215-0.035c1.772-1.193,4.1-1.193,5.861,0.012c20.409,13.691,46.806,13.691,67.239-0.012
		L438.732,455.002z"/>
	<path style="fill:#EC589B;" d="M438.709,426.323c-22.459,13.193-50.084,13.042-72.37-0.429
		c-11.27,6.811-23.907,10.216-36.544,10.216c-12.648,0-25.274-3.405-36.556-10.216c-22.54,13.621-50.548,13.621-73.088,0
		c-22.54,13.621-50.548,13.621-73.088,0c-22.772,13.76-51.104,13.61-73.76-0.429c0.046-4.089,0.185-8.166,0.394-12.208l3.185,2.12
		c20.444,13.726,46.853,13.726,67.285,0.012c1.749-1.181,4.031-1.181,5.791-0.012c20.432,13.714,46.818,13.726,67.25,0.035
		c1.737-1.181,4.054-1.216,5.826-0.035c20.455,13.726,46.841,13.726,67.273,0.035c1.772-1.205,4.124-1.216,5.896,0.023
		c20.386,13.668,46.783,13.668,67.215-0.035c1.772-1.193,4.1-1.193,5.861,0.012c20.409,13.703,46.806,13.703,67.239-0.012
		l1.83-1.228C438.547,418.203,438.674,422.245,438.709,426.323z"/>
</g>
<path style="fill:#D5A03C;" d="M256.462,389.4c-2.559,0-4.633-2.074-4.633-4.633V242.512c0-2.559,2.074-4.633,4.633-4.633
	c2.559,0,4.633,2.074,4.633,4.633v142.254C261.095,387.325,259.02,389.4,256.462,389.4z"/>
<g>
</g>
<g>
</g>
<g>
</g>
<g>
</g>
<g>
</g>
<g>
</g>
<g>
</g>
<g>
</g>
<g>
</g>
<g>
</g>
<g>
</g>
<g>
</g>
<g>
</g>
<g>
</g>
<g>
</g>
</svg>
