<?xml version="1.0" encoding="iso-8859-1"?>
<!-- Generator: Adobe Illustrator 19.0.0, SVG Export Plug-In . SVG Version: 6.00 Build 0)  -->
<svg version="1.1" id="Layer_1" xmlns="http://www.w3.org/2000/svg" xmlns:xlink="http://www.w3.org/1999/xlink" x="0px" y="0px"
	 viewBox="0 0 512 512" style="enable-background:new 0 0 512 512;" xml:space="preserve">
<polygon style="fill:#EAA0E3;" points="491.268,74.504 462.178,109.64 423.084,70.546 458.219,41.457 "/>
<polygon style="fill:#D57CD4;" points="458.219,41.457 423.084,70.546 438.28,85.742 473.415,56.653 "/>
<polyline style="fill:#E6E6E6;" points="191.702,280.994 185.595,287.099 188.844,290.348 216.304,317.808 245.625,347.13 
	473.198,119.558 413.167,59.527 251.853,220.843 "/>
<polyline style="fill:#CCCCCC;" points="191.702,280.994 185.595,287.1 186.602,288.107 195.112,296.616 204.198,305.702 
	431.77,78.13 413.168,59.528 251.853,220.843 "/>
<g>
	<path style="fill:#E6E6E6;" d="M188.844,290.348l2.858-9.355L277.646,0l0,0c21.084,6.452,32.947,28.773,26.499,49.858
		l-52.292,170.984l-30.16,98.613l-5.389-1.648"/>
	<path style="fill:#E6E6E6;" d="M58.643,485.769l-12.112,12.123l-11.694,11.683c-1.609,1.609-3.725,2.425-5.841,2.425
		s-4.232-0.816-5.841-2.425c-3.229-3.229-3.229-8.464,0-11.694l23.806-23.806c3.229-3.229,8.464-3.229,11.683,0
		C61.872,477.305,61.872,482.54,58.643,485.769z"/>
</g>
<path style="fill:#CCCCCC;" d="M58.643,485.769l-12.112,12.123l-11.694-11.694l12.123-12.123c3.229-3.229,8.464-3.229,11.683,0
	C61.872,477.305,61.872,482.54,58.643,485.769z"/>
<path style="fill:#EAA0E3;" d="M151.086,321.6L43.214,429.474c-11.284,11.284-11.284,29.577,0,40.86L62.39,489.51
	c11.284,11.284,29.577,11.284,40.86,0l107.872-107.872l44.72-25.384l-9.668-9.668l-60.036-60.036l-9.668-9.668L151.086,321.6z"/>
<path style="fill:#D57CD4;" d="M60.879,447.137l107.872-107.872l25.384-44.72l-7.997-7.997l-9.668-9.668l-25.384,44.72
	L43.214,429.474c-11.284,11.284-11.284,29.577,0,40.86l17.665,17.665C49.596,476.715,49.596,458.421,60.879,447.137z"/>
<g>
</g>
<g>
</g>
<g>
</g>
<g>
</g>
<g>
</g>
<g>
</g>
<g>
</g>
<g>
</g>
<g>
</g>
<g>
</g>
<g>
</g>
<g>
</g>
<g>
</g>
<g>
</g>
<g>
</g>
</svg>
