<?xml version="1.0" encoding="iso-8859-1"?>
<!-- Generator: Adobe Illustrator 19.0.0, SVG Export Plug-In . SVG Version: 6.00 Build 0)  -->
<svg version="1.1" id="Layer_1" xmlns="http://www.w3.org/2000/svg" xmlns:xlink="http://www.w3.org/1999/xlink" x="0px" y="0px"
	 viewBox="0 0 512 512" style="enable-background:new 0 0 512 512;" xml:space="preserve">
<rect x="72.403" y="129.743" style="fill:#E6E6E6;" width="367.195" height="382.257"/>
<rect x="72.403" y="123.574" style="fill:#CCCCCC;" width="367.195" height="34.937"/>
<path style="fill:#EC589B;" d="M255.998,366.915c0-19.975,13.754-36.169,30.72-36.169c21.208,0,38.4,20.242,38.4,45.212
	c0,31.212-36.987,61.727-69.12,78.153c-32.133-16.427-69.12-46.941-69.12-78.153c0-24.969,17.192-45.212,38.4-45.212
	C242.244,330.745,255.998,346.938,255.998,366.915z"/>
<g>
	<path style="fill:#F4C063;" d="M189.09,288.228c-3.748,0-6.785-3.037-6.785-6.785v-67.991l-25.744,37.9
		c-1.263,1.859-3.365,2.973-5.613,2.973s-4.35-1.113-5.613-2.973l-25.744-37.9v67.991c0,3.748-3.037,6.785-6.785,6.785
		s-6.785-3.037-6.785-6.785v-90.056c0-2.979,1.943-5.609,4.79-6.485c2.847-0.875,5.934,0.208,7.608,2.673l32.529,47.89l32.529-47.89
		c1.674-2.465,4.761-3.548,7.608-2.673c2.847,0.876,4.79,3.506,4.79,6.485v90.056C195.875,285.189,192.837,288.228,189.09,288.228z"
		/>
	<path style="fill:#F4C063;" d="M399.189,288.228c-3.747,0-6.785-3.037-6.785-6.785v-67.991l-25.744,37.9
		c-1.262,1.859-3.365,2.973-5.613,2.973s-4.35-1.113-5.613-2.973l-25.744-37.9v67.991c0,3.748-3.038,6.785-6.785,6.785
		c-3.747,0-6.785-3.037-6.785-6.785v-90.056c0-2.979,1.943-5.609,4.791-6.485c2.844-0.875,5.934,0.208,7.607,2.673l32.529,47.89
		l32.529-47.89c1.674-2.465,4.764-3.547,7.607-2.673c2.848,0.876,4.791,3.506,4.791,6.485v90.056
		C405.974,285.189,402.936,288.228,399.189,288.228z"/>
	<path style="fill:#F4C063;" d="M255.998,288.228c-24.773,0-44.926-23.243-44.926-51.813s20.154-51.813,44.926-51.813
		s44.926,23.243,44.926,51.813S280.769,288.228,255.998,288.228z M255.998,198.172c-17.29,0-31.356,17.155-31.356,38.243
		s14.066,38.243,31.356,38.243s31.356-17.155,31.356-38.243S273.287,198.172,255.998,198.172z"/>
</g>
<rect x="49.34" style="fill:#74C194;" width="413.321" height="129.743"/>
<g>
	<circle style="fill:#666666;" cx="173.954" cy="64.15" r="20.355"/>
	<circle style="fill:#666666;" cx="338.029" cy="64.15" r="20.355"/>
</g>
<g>
	<path style="fill:#43AC75;" d="M173.96,91.29c-14.965,0-27.14-12.175-27.14-27.14s12.175-27.14,27.14-27.14
		c14.965,0,27.14,12.175,27.14,27.14S188.925,91.29,173.96,91.29z M173.96,50.579c-7.482,0-13.57,6.088-13.57,13.57
		s6.088,13.57,13.57,13.57c7.482,0,13.57-6.088,13.57-13.57S181.442,50.579,173.96,50.579z"/>
	<path style="fill:#43AC75;" d="M338.035,91.29c-14.965,0-27.14-12.175-27.14-27.14s12.175-27.14,27.14-27.14
		s27.14,12.175,27.14,27.14S353,91.29,338.035,91.29z M338.035,50.579c-7.482,0-13.57,6.088-13.57,13.57s6.088,13.57,13.57,13.57
		s13.57-6.088,13.57-13.57S345.518,50.579,338.035,50.579z"/>
</g>
<g>
</g>
<g>
</g>
<g>
</g>
<g>
</g>
<g>
</g>
<g>
</g>
<g>
</g>
<g>
</g>
<g>
</g>
<g>
</g>
<g>
</g>
<g>
</g>
<g>
</g>
<g>
</g>
<g>
</g>
</svg>
