<?xml version="1.0" encoding="iso-8859-1"?>
<!-- Generator: Adobe Illustrator 19.0.0, SVG Export Plug-In . SVG Version: 6.00 Build 0)  -->
<svg version="1.1" id="Layer_1" xmlns="http://www.w3.org/2000/svg" xmlns:xlink="http://www.w3.org/1999/xlink" x="0px" y="0px"
	 viewBox="0 0 512.001 512.001" style="enable-background:new 0 0 512.001 512.001;" xml:space="preserve">
<path style="fill:#F7C957;" d="M194.003,500.452c0,0-12.398-78.248,61.998-106.467c74.396,28.219,61.998,106.467,61.998,106.467l0,0
	C278.101,515.85,233.901,515.85,194.003,500.452L194.003,500.452z"/>
<path style="fill:#D8B356;" d="M255.996,393.989c-30.291,27.241-30.531,95.564-29.921,115.387
	c-10.887-1.914-21.642-4.893-32.086-8.925C193.99,500.452,181.596,422.199,255.996,393.989z"/>
<path style="fill:#F4C063;" d="M429.474,108.048c0,0,34.69,218.943-173.473,297.901C47.838,326.991,82.528,108.048,82.528,108.048"
	/>
<path style="fill:#D8B356;" d="M255.996,405.953C47.833,326.994,82.527,108.052,82.527,108.052h69.95
	C152.478,108.052,131.781,326.994,255.996,405.953z"/>
<path style="fill:#C6A14E;" d="M97.006,78.661c-9.312,8.998-14.479,18.937-14.479,29.386c0,40.514,77.665,73.357,173.47,73.357
	s173.47-32.843,173.47-73.357c0-10.128-4.854-19.778-13.632-28.554"/>
<g>
	<path style="fill:#53C489;" d="M183.423,141.94v32.744c-6.185-1.184-12.179-2.548-17.945-4.044v-28.7
		c0-4.953,4.02-8.973,8.973-8.973C179.403,132.968,183.423,136.988,183.423,141.94z"/>
	<path style="fill:#53C489;" d="M264.977,141.94v39.372c-2.979,0.06-5.97,0.096-8.985,0.096c-3.003,0-5.994-0.036-8.961-0.096
		V141.94c0-4.953,4.008-8.973,8.973-8.973C260.958,132.968,264.977,136.988,264.977,141.94z"/>
	<path style="fill:#53C489;" d="M346.52,141.94v28.688c-5.766,1.507-11.76,2.859-17.945,4.056V141.94
		c0-4.953,4.008-8.973,8.973-8.973C342.5,132.968,346.52,136.988,346.52,141.94z"/>
</g>
<path style="fill:#EC589B;" d="M180.323,17.508v32.313c0,25.769-20.888,46.657-46.657,46.657c-25.757,0-46.645-20.888-46.645-46.657
	V17.508c0-13.806,14.978-21.75,26.2-15.146c0.873,0.514,1.723,1.113,2.548,1.806l17.897,15.146l17.909-15.146
	C162.928-5.438,180.323,2.625,180.323,17.508z"/>
<path style="fill:#D3468D;" d="M133.666,96.478c-25.757,0-46.645-20.888-46.645-46.657V17.508c0-13.806,14.978-21.75,26.2-15.146
	C111.234,29.567,111.796,74.609,133.666,96.478z"/>
<path style="fill:#EC589B;" d="M261.869,17.508v32.313c0,25.769-20.888,46.657-46.657,46.657c-25.757,0-46.645-20.888-46.645-46.657
	V17.508c0-13.806,14.978-21.75,26.2-15.146c0.873,0.514,1.723,1.113,2.548,1.806l17.897,15.146l17.909-15.146
	C244.474-5.438,261.869,2.625,261.869,17.508z"/>
<path style="fill:#D3468D;" d="M215.212,96.478c-25.757,0-46.645-20.888-46.645-46.657V17.508c0-13.806,14.978-21.75,26.2-15.146
	C192.78,29.567,193.343,74.609,215.212,96.478z"/>
<path style="fill:#EC589B;" d="M343.424,17.508v32.313c0,25.769-20.888,46.657-46.657,46.657c-25.757,0-46.645-20.888-46.645-46.657
	V17.508c0-13.806,14.978-21.75,26.2-15.146c0.873,0.514,1.723,1.113,2.548,1.806l17.897,15.146l17.909-15.146
	C326.029-5.438,343.424,2.625,343.424,17.508z"/>
<path style="fill:#D3468D;" d="M296.767,96.478c-25.757,0-46.645-20.888-46.645-46.657V17.508c0-13.806,14.978-21.75,26.2-15.146
	C274.335,29.567,274.897,74.609,296.767,96.478z"/>
<path style="fill:#EC589B;" d="M424.975,17.508v32.313c0,25.769-20.888,46.657-46.657,46.657c-25.757,0-46.645-20.888-46.645-46.657
	V17.508c0-13.806,14.978-21.75,26.2-15.146c0.873,0.514,1.723,1.113,2.548,1.806l17.897,15.146l17.909-15.146
	C407.58-5.438,424.975,2.625,424.975,17.508z"/>
<path style="fill:#D3468D;" d="M378.318,96.478c-25.757,0-46.645-20.888-46.645-46.657V17.508c0-13.806,14.978-21.75,26.2-15.146
	C355.886,29.567,356.448,74.609,378.318,96.478z"/>
<path style="fill:#EC589B;" d="M221.1,62.973v32.313c0,25.769-20.888,46.657-46.657,46.657c-25.757,0-46.645-20.888-46.645-46.657
	V62.973c0-13.806,14.978-21.75,26.2-15.146c0.873,0.514,1.723,1.113,2.548,1.806l17.897,15.146l17.909-15.146
	C203.705,40.028,221.1,48.091,221.1,62.973z"/>
<path style="fill:#D3468D;" d="M174.443,141.944c-25.757,0-46.645-20.888-46.645-46.657V62.973c0-13.806,14.978-21.75,26.2-15.146
	C152.011,75.033,152.574,120.075,174.443,141.944z"/>
<path style="fill:#EC589B;" d="M302.647,62.973v32.313c0,25.769-20.888,46.657-46.657,46.657c-25.757,0-46.645-20.888-46.645-46.657
	V62.973c0-13.806,14.978-21.75,26.2-15.146c0.873,0.514,1.723,1.113,2.548,1.806l17.897,15.146l17.909-15.146
	C285.252,40.028,302.647,48.091,302.647,62.973z"/>
<path style="fill:#D3468D;" d="M255.989,141.944c-25.757,0-46.645-20.888-46.645-46.657V62.973c0-13.806,14.978-21.75,26.2-15.146
	C233.558,75.033,234.12,120.075,255.989,141.944z"/>
<path style="fill:#EC589B;" d="M384.201,62.973v32.313c0,25.769-20.888,46.657-46.657,46.657c-25.757,0-46.645-20.888-46.645-46.657
	V62.973c0-13.806,14.978-21.75,26.2-15.146c0.873,0.514,1.723,1.113,2.548,1.806l17.897,15.146l17.909-15.146
	C366.806,40.028,384.201,48.091,384.201,62.973z"/>
<path style="fill:#D3468D;" d="M337.544,141.944c-25.757,0-46.645-20.888-46.645-46.657V62.973c0-13.806,14.978-21.75,26.2-15.146
	C315.112,75.033,315.675,120.075,337.544,141.944z"/>
<g>
</g>
<g>
</g>
<g>
</g>
<g>
</g>
<g>
</g>
<g>
</g>
<g>
</g>
<g>
</g>
<g>
</g>
<g>
</g>
<g>
</g>
<g>
</g>
<g>
</g>
<g>
</g>
<g>
</g>
</svg>
