<?xml version="1.0" encoding="iso-8859-1"?>
<!-- Generator: Adobe Illustrator 19.0.0, SVG Export Plug-In . SVG Version: 6.00 Build 0)  -->
<svg version="1.1" id="Layer_1" xmlns="http://www.w3.org/2000/svg" xmlns:xlink="http://www.w3.org/1999/xlink" x="0px" y="0px"
	 viewBox="0 0 512 512" style="enable-background:new 0 0 512 512;" xml:space="preserve">
<rect x="151.755" y="332.196" style="fill:#CCCCCC;" width="193.942" height="24.529"/>
<path style="fill:#EC589B;" d="M502.216,229.449v117.697H12.205v-69.668c0-19.582,6.91-40.716,17.109-61.251
	c1.92-3.863,3.944-7.692,6.071-11.498c3.151-5.646,6.508-11.211,9.992-16.65c7.497-11.717,16.236-22.376,25.986-31.862
	c2.932-2.852,5.945-5.588,9.049-8.221c32-27.159,72.991-42.636,116.087-42.636h139.313c14.131,0,26.872,8.532,32.253,21.605
	l26.55,64.471l87.571,14.419C493.731,207.774,502.216,217.755,502.216,229.449z"/>
<path style="fill:#D3468D;" d="M53.596,277.482c0-28.73,14.868-60.802,33.176-89.402c32.986-51.531,89.94-82.721,151.123-82.721
	h97.916h-0.001H196.501c-61.185,0-118.138,31.19-151.123,82.721c-18.308,28.601-33.176,60.672-33.176,89.402v69.662h30.495h10.899
	C53.596,347.144,53.596,277.482,53.596,277.482z"/>
<path style="fill:#C3F6F9;" d="M67.022,210.476H32.252c4.024-7.612,8.463-15.12,13.12-22.399
	c8.635-13.476,18.903-25.572,30.471-36.07l11.556,28.044C93.365,194.551,82.706,210.476,67.022,210.476z"/>
<path style="fill:#D3468D;" d="M90.106,203.898c-5.174,7.715-13.798,12.326-23.089,12.326H29.315
	c1.92-3.863,3.944-7.692,6.071-11.498h31.632c5.531,0,10.463-2.633,13.534-7.221s3.633-10.153,1.529-15.27l-10.716-26.021
	c2.932-2.852,5.945-5.588,9.049-8.221l12.303,29.861C96.247,186.457,95.268,196.183,90.106,203.898z"/>
<path style="fill:#C3F6F9;" d="M370.969,210.481l-25.573-62.107c-3.463-8.411-11.66-13.9-20.757-13.9H190.806
	c-34.488,0-62.446,27.958-62.446,62.446v13.561H370.969z"/>
<g>
	<circle style="fill:#4D4D4D;" cx="396.508" cy="347.144" r="59.497"/>
	<path style="fill:#4D4D4D;" d="M49.617,319.293c-4.411,8.311-6.92,17.786-6.92,27.85c0,32.859,26.638,59.497,59.497,59.497
		s59.497-26.638,59.497-59.497c0-10.064-2.509-19.539-6.92-27.85H49.617z"/>
</g>
<g>
	<circle style="fill:#CCCCCC;" cx="396.508" cy="347.144" r="27.607"/>
	<circle style="fill:#CCCCCC;" cx="102.197" cy="347.144" r="27.607"/>
</g>
<g>
	<path style="fill:#666666;" d="M125.346,319.296H79.043c-7.991,6.658-13.074,16.673-13.074,27.849
		c0,19.973,16.247,36.22,36.22,36.22c19.984,0,36.231-16.247,36.231-36.22C138.42,335.969,133.338,325.954,125.346,319.296z
		 M102.189,366.118c-10.463,0-18.972-8.509-18.972-18.972s8.509-18.984,18.972-18.984s18.984,8.52,18.984,18.984
		S112.652,366.118,102.189,366.118z"/>
	<path style="fill:#666666;" d="M396.512,383.37c-19.976,0-36.228-16.252-36.228-36.227c0-19.975,16.252-36.227,36.228-36.227
		c19.975,0,36.227,16.252,36.227,36.227C432.739,367.118,416.487,383.37,396.512,383.37z M396.512,328.164
		c-10.466,0-18.98,8.514-18.98,18.979c0,10.465,8.514,18.979,18.98,18.979c10.466,0,18.979-8.514,18.979-18.979
		C415.491,336.678,406.977,328.164,396.512,328.164z"/>
</g>
<path style="fill:#D3468D;" d="M350.18,146.403c-4.28-10.391-14.305-17.104-25.541-17.104H190.806
	c-37.287,0-67.622,30.335-67.622,67.622v18.735h255.51L350.18,146.403z M133.534,205.307v-8.387
	c0-23.105,13.76-43.043,33.508-52.088l0.001,60.475H133.534z M259.387,205.307h-81.996l-0.001-64.057
	c4.306-1.038,8.795-1.603,13.416-1.603h68.58L259.387,205.307L259.387,205.307z M269.735,139.648h54.903
	c7.025,0,13.296,4.199,15.972,10.697l22.632,54.963h-93.507v-65.66H269.735z"/>
<path style="fill:#CCCCCC;" d="M503.376,326.651h-25.214c-4.764,0-8.624-3.861-8.624-8.624c0-4.763,3.86-8.624,8.624-8.624h25.214
	c4.764,0,8.624,3.861,8.624,8.624C512,322.79,508.14,326.651,503.376,326.651z"/>
<path style="fill:#F7C957;" d="M478.491,285.114h23.726v-45.572h-23.726c-12.065,0-21.847,9.782-21.847,21.847v1.879
	C456.644,275.334,466.424,285.114,478.491,285.114z"/>
<path style="fill:#CCCCCC;" d="M33.942,326.651H8.624C3.86,326.651,0,322.79,0,318.027c0-4.763,3.86-8.624,8.624-8.624h25.318
	c4.764,0,8.624,3.861,8.624,8.624C42.566,322.79,38.704,326.651,33.942,326.651z"/>
<path style="fill:#F7C957;" d="M52.49,286.105H32.132c-4.764,0-8.624-3.861-8.624-8.624c0-4.763,3.86-8.624,8.624-8.624H52.49
	c4.764,0,8.624,3.861,8.624,8.624C61.113,282.244,57.254,286.105,52.49,286.105z"/>
<g>
</g>
<g>
</g>
<g>
</g>
<g>
</g>
<g>
</g>
<g>
</g>
<g>
</g>
<g>
</g>
<g>
</g>
<g>
</g>
<g>
</g>
<g>
</g>
<g>
</g>
<g>
</g>
<g>
</g>
</svg>
