<?xml version="1.0" encoding="iso-8859-1"?>
<!-- Generator: Adobe Illustrator 19.0.0, SVG Export Plug-In . SVG Version: 6.00 Build 0)  -->
<svg version="1.1" id="Layer_1" xmlns="http://www.w3.org/2000/svg" xmlns:xlink="http://www.w3.org/1999/xlink" x="0px" y="0px"
	 viewBox="0 0 512 512" style="enable-background:new 0 0 512 512;" xml:space="preserve">
<g>
	<rect x="82.73" y="473.062" style="fill:#D57CD4;" width="233.957" height="30.043"/>
	<path style="fill:#D57CD4;" d="M270.497,364.836H128.916c-5.03,0-9.109-4.078-9.109-9.109V88.795
		c0-44.056,35.843-79.899,79.901-79.899s79.899,35.843,79.899,79.899v266.933C279.606,360.758,275.528,364.836,270.497,364.836z
		 M138.024,346.619H261.39V88.795c0-34.011-27.671-61.682-61.682-61.682s-61.683,27.671-61.683,61.682
		C138.024,88.795,138.024,346.619,138.024,346.619z"/>
</g>
<g>
	<polyline style="fill:#EAA0E3;" points="316.967,365.689 430.648,180.543 457.88,199.973 341.011,475.486 	"/>
	<polygon style="fill:#EAA0E3;" points="295.87,269.304 103.544,269.304 58.407,475.487 341.007,475.487 	"/>
</g>
<g>
	<polygon style="fill:#D57CD4;" points="119.146,475.487 143.469,269.304 103.544,269.304 58.407,475.487 	"/>
	<polygon style="fill:#D57CD4;" points="512,188.072 418.665,121.481 430.648,180.543 457.88,199.973 	"/>
</g>
<g>
	<path style="fill:#F4C063;" d="M78.607,172.463c6.903,6.903,19.087,25.77,25.295,42.298c-10.864,5.096-19.666,13.898-24.762,24.762
		c-16.528-6.208-35.395-18.392-42.298-25.295c-11.535-11.535-11.535-30.23,0-41.765C48.378,160.928,67.072,160.928,78.607,172.463z"
		/>
	<path style="fill:#F4C063;" d="M77.321,243.901c-1.981,5.466-3.058,11.361-3.058,17.512c0,6.15,1.077,12.045,3.058,17.512
		c-16.076,7.286-38.035,12.022-47.787,12.022C13.215,290.947,0,277.72,0,261.412s13.215-29.534,29.534-29.534
		C39.286,231.879,61.246,236.615,77.321,243.901z"/>
	<path style="fill:#F4C063;" d="M103.902,308.065c-6.208,16.528-18.392,35.395-25.295,42.298c-11.535,11.535-30.23,11.535-41.765,0
		c-11.535-11.535-11.535-30.23,0-41.765c6.903-6.903,25.77-19.087,42.298-25.295C84.236,294.167,93.039,302.969,103.902,308.065z"/>
	<path style="fill:#F4C063;" d="M143.304,309.883c7.286,16.076,12.022,38.035,12.022,47.787c0,16.319-13.227,29.534-29.534,29.534
		s-29.534-13.215-29.534-29.534c0-9.752,4.736-31.711,12.022-47.787c5.466,1.981,11.361,3.058,17.512,3.058
		C131.942,312.941,137.837,311.864,143.304,309.883z"/>
</g>
<path style="fill:#53C489;" d="M238.303,168.435c13.818-0.968,25.821,9.455,26.79,23.284c0.968,13.829-9.466,25.822-23.284,26.79
	c-13.829,0.968-25.833-9.454-26.801-23.283C214.04,181.396,224.473,169.405,238.303,168.435z"/>
<g>
	<path style="fill:#E6E6E6;" d="M184.296,106.973c7.47,6.493,21.13,24.712,28.578,40.987c-10.627,5.923-18.906,15.449-23.291,26.797
		c-17.156-5.108-37.1-16.095-44.57-22.588c-12.484-10.85-13.807-29.756-2.957-42.24S171.812,96.123,184.296,106.973z"/>
	<path style="fill:#E6E6E6;" d="M190.48,179.389c-1.593,5.591-2.257,11.547-1.827,17.683c0.43,6.136,1.915,11.941,4.274,17.255
		c-15.528,8.39-37.102,14.649-46.832,15.33c-16.279,1.139-30.386-11.132-31.524-27.4c-1.139-16.268,11.12-30.385,27.4-31.524
		C151.698,170.052,173.935,173.245,190.48,179.389z"/>
	<path style="fill:#E6E6E6;" d="M221.477,241.54c-5.039,16.921-15.876,36.592-22.28,43.961
		c-10.702,12.314-29.349,13.619-41.663,2.917c-12.314-10.702-13.619-29.349-2.917-41.663c6.404-7.368,24.373-20.84,40.428-28.188
		C200.889,229.049,210.285,237.215,221.477,241.54z"/>
	<path style="fill:#E6E6E6;" d="M259.46,241.377c8.506,15.743,14.852,37.617,15.543,47.48c1.155,16.505-11.286,30.806-27.779,31.961
		c-16.493,1.155-30.806-11.274-31.961-27.779c-0.691-9.863,2.546-32.408,8.775-49.183c5.669,1.616,11.708,2.288,17.928,1.852
		C248.186,245.274,254.071,243.767,259.46,241.377z"/>
	<path style="fill:#E6E6E6;" d="M287.051,212.43c17.156,5.108,37.1,16.095,44.57,22.588c12.484,10.85,13.807,29.756,2.957,42.24
		c-10.85,12.484-29.756,13.807-42.24,2.957c-7.47-6.493-21.129-24.712-28.578-40.987
		C274.397,233.292,282.654,223.779,287.051,212.43z"/>
	<path style="fill:#E6E6E6;" d="M333.58,156.908c16.505-1.155,30.806,11.286,31.961,27.779
		c1.155,16.493-11.274,30.806-27.779,31.961c-9.863,0.691-32.408-2.546-49.183-8.775l-0.012,0.001
		c1.616-5.669,2.288-11.708,1.852-17.928c-0.436-6.221-1.942-12.106-4.332-17.495l0.012-0.001
		C301.843,163.944,323.717,157.599,333.58,156.908z"/>
	<path style="fill:#E6E6E6;" d="M321.98,97.334c12.484,10.85,13.807,29.756,2.957,42.24c-6.493,7.47-24.712,21.13-40.987,28.578
		c-5.935-10.625-15.436-18.895-26.797-23.291c5.108-17.156,16.095-37.1,22.588-44.57C290.591,87.807,309.497,86.484,321.98,97.334z"
		/>
	<path style="fill:#E6E6E6;" d="M261.372,94.149c0.691,9.863-2.546,32.408-8.775,49.183c-5.669-1.616-11.708-2.288-17.928-1.852
		c-6.221,0.436-12.106,1.942-17.495,4.332c-8.506-15.743-14.852-37.617-15.543-47.48c-1.155-16.505,11.286-30.806,27.779-31.961
		C245.903,65.216,260.215,77.645,261.372,94.149z"/>
</g>
<path style="fill:#EC589B;" d="M285.066,168.378c0.77,1.375,1.472,2.788,2.108,4.241c2.357,5.315,3.844,11.121,4.274,17.255
	c0.43,6.136-0.233,12.091-1.827,17.683c-0.428,1.528-0.925,3.025-1.496,4.494c-4.337,11.194-12.48,20.577-22.972,26.432
	c-1.375,0.77-2.787,1.484-4.24,2.119c-5.315,2.357-11.121,3.844-17.255,4.274c-6.136,0.43-12.091-0.233-17.683-1.827
	c-1.528-0.428-3.025-0.925-4.495-1.508c-11.194-4.325-20.589-12.491-26.432-22.972c-0.781-1.374-1.484-2.787-2.119-4.24
	c-2.357-5.315-3.844-11.121-4.274-17.255c-0.43-6.136,0.233-12.091,1.827-17.683c0.428-1.528,0.925-3.025,1.508-4.495
	c4.325-11.194,12.491-20.589,22.972-26.432c1.374-0.781,2.787-1.484,4.24-2.119c5.315-2.357,11.121-3.844,17.255-4.274
	c6.136-0.43,12.091,0.233,17.683,1.827c1.528,0.427,3.026,0.938,4.495,1.508C269.84,149.741,279.211,157.897,285.066,168.378z
	 M265.093,191.719c-0.968-13.829-12.972-24.252-26.79-23.284c-13.829,0.968-24.264,12.961-23.296,26.79
	c0.968,13.829,12.972,24.252,26.801,23.283C255.627,217.542,266.061,205.55,265.093,191.719z"/>
<g>
	<path style="fill:#F4C063;" d="M125.795,225.761c19.677,0,35.651,15.958,35.651,35.651s-15.975,35.651-35.651,35.651
		c-19.693,0-35.668-15.958-35.668-35.651S106.102,225.761,125.795,225.761z"/>
	<path style="fill:#F4C063;" d="M172.445,283.303c16.528,6.208,35.395,18.392,42.298,25.295c11.535,11.535,11.535,30.23,0,41.765
		c-11.535,11.535-30.23,11.535-41.765,0c-6.903-6.903-19.087-25.77-25.295-42.298C158.557,302.957,167.337,294.167,172.445,283.303z
		"/>
	<path style="fill:#F4C063;" d="M222.05,231.879c16.319,0,29.534,13.227,29.534,29.534c0,16.308-13.215,29.534-29.534,29.534
		c-9.752,0-31.711-4.736-47.787-12.022h-0.012c1.981-5.466,3.058-11.361,3.058-17.512s-1.077-12.045-3.058-17.512h0.012
		C190.339,236.615,212.298,231.879,222.05,231.879z"/>
	<path style="fill:#F4C063;" d="M214.742,172.463c11.535,11.535,11.535,30.23,0,41.765c-6.903,6.903-25.77,19.087-42.298,25.295
		c-5.108-10.864-13.886-19.655-24.762-24.762c6.208-16.528,18.392-35.395,25.295-42.298
		C184.513,160.928,203.207,160.928,214.742,172.463z"/>
	<path style="fill:#F4C063;" d="M155.326,165.155c0,9.752-4.736,31.711-12.022,47.787c-5.466-1.981-11.361-3.058-17.512-3.058
		s-12.045,1.077-17.512,3.058c-7.286-16.076-12.022-38.035-12.022-47.787c0-16.319,13.227-29.534,29.534-29.534
		S155.326,148.835,155.326,165.155z"/>
</g>
<path style="fill:#EC589B;" d="M172.445,239.523c0.672,1.425,1.274,2.884,1.807,4.378c1.981,5.466,3.058,11.361,3.058,17.512
	c0,6.15-1.077,12.045-3.058,17.512c-0.533,1.494-1.136,2.954-1.807,4.378c-5.108,10.864-13.886,19.655-24.762,24.762
	c-1.425,0.672-2.884,1.286-4.378,1.818c-5.466,1.981-11.361,3.058-17.512,3.058s-12.045-1.077-17.512-3.058
	c-1.494-0.533-2.954-1.136-4.378-1.818c-10.864-5.096-19.666-13.898-24.762-24.762c-0.684-1.425-1.286-2.884-1.818-4.378
	c-1.981-5.466-3.058-11.361-3.058-17.512c0-6.15,1.077-12.045,3.058-17.512c0.533-1.494,1.136-2.954,1.818-4.378
	c5.096-10.864,13.898-19.666,24.762-24.762c1.425-0.684,2.884-1.286,4.378-1.818c5.466-1.981,11.361-3.058,17.512-3.058
	s12.045,1.077,17.512,3.058c1.494,0.533,2.954,1.146,4.378,1.818C158.557,219.867,167.337,228.659,172.445,239.523z M150.89,261.412
	c0-13.863-11.246-25.098-25.098-25.098c-13.863,0-25.109,11.235-25.109,25.098c0,13.863,11.246,25.098,25.109,25.098
	C139.644,286.511,150.89,275.277,150.89,261.412z"/>
<g>
</g>
<g>
</g>
<g>
</g>
<g>
</g>
<g>
</g>
<g>
</g>
<g>
</g>
<g>
</g>
<g>
</g>
<g>
</g>
<g>
</g>
<g>
</g>
<g>
</g>
<g>
</g>
<g>
</g>
</svg>
