<?xml version="1.0" encoding="iso-8859-1"?>
<!-- Generator: Adobe Illustrator 19.0.0, SVG Export Plug-In . SVG Version: 6.00 Build 0)  -->
<svg version="1.1" id="Layer_1" xmlns="http://www.w3.org/2000/svg" xmlns:xlink="http://www.w3.org/1999/xlink" x="0px" y="0px"
	 viewBox="0 0 511.995 511.995" style="enable-background:new 0 0 511.995 511.995;" xml:space="preserve">
<polygon style="fill:#EC589B;" points="145.126,37.752 145.126,86.231 73.242,138.376 73.242,37.752 "/>
<polygon style="fill:#D3468D;" points="145.126,52.64 145.126,86.231 73.242,138.376 73.242,104.786 "/>
<rect x="59.159" y="170.434" style="fill:#E6E6E6;" width="393.661" height="341.562"/>
<rect x="59.159" y="162.85" style="fill:#CCCECE;" width="393.661" height="32.1"/>
<polygon style="fill:#EAA0E3;" points="255.998,0 21.079,170.435 490.916,170.435 "/>
<rect x="161.493" y="232.385" style="fill:#F4C063;" width="189.016" height="174.833"/>
<polygon style="fill:#EAA0E3;" points="359.189,415.906 341.822,415.906 341.822,241.074 170.173,241.074 170.173,415.906 
	152.807,415.906 152.807,223.708 359.189,223.708 "/>
<path style="fill:#778082;" d="M311.325,309.442c0,0,8.317,61.953-8.632,94.2c0-11.776-24.309,1.631-32.026-6.084
	c-7.716-7.716-18.569-59.546-30.346-59.546C268.66,337.859,311.325,337.819,311.325,309.442z"/>
<rect x="140.248" y="407.218" style="fill:#EAA0E3;" width="231.494" height="36.552"/>
<path style="fill:#EC589B;" d="M217.411,408.363v-4.721c0-23.549,19.089-42.638,42.638-42.638l0,0
	c23.549,0,42.638,19.089,42.638,42.638v4.721"/>
<circle style="fill:#4D4D4D;" cx="256.001" cy="103.492" r="32.895"/>
<path style="fill:#D57CD4;" d="M255.998,145.073c-22.927,0-41.58-18.653-41.58-41.58s18.653-41.58,41.58-41.58
	s41.579,18.653,41.579,41.58S278.925,145.073,255.998,145.073z M255.998,79.28c-13.351,0-24.213,10.862-24.213,24.213
	s10.862,24.213,24.213,24.213s24.212-10.862,24.212-24.213S269.349,79.28,255.998,79.28z"/>
<circle style="fill:#F9DCA4;" cx="259.764" cy="309.446" r="51.562"/>
<path style="fill:#E7C080;" d="M231.675,309.442c0-24.437,17.005-44.889,39.825-50.204c-3.772-0.879-7.698-1.358-11.737-1.358
	c-28.477,0-51.562,23.085-51.562,51.562c0,28.477,23.085,51.562,51.562,51.562c4.039,0,7.965-0.479,11.737-1.358
	C248.681,354.332,231.675,333.88,231.675,309.442z"/>
<path style="fill:#778082;" d="M311.325,309.442c-57.228,5.865-87.804-36.666-87.804-36.666
	c9.315-9.208,22.116-14.893,36.245-14.893C288.239,257.883,311.325,280.968,311.325,309.442z"/>
<g>
	<path style="fill:#4D4D4D;" d="M231.48,319.085c-3.784,0-6.948-3.169-6.947-6.947c0.001-3.784,3.162-6.944,6.947-6.944
		c3.784,0,6.945,3.161,6.947,6.944C238.428,315.917,235.263,319.085,231.48,319.085z"/>
	<path style="fill:#4D4D4D;" d="M270.508,319.085c-3.661,0-6.753-2.958-6.937-6.606c-0.191-3.767,2.795-7.053,6.548-7.273
		c3.762-0.22,7.066,2.737,7.321,6.481C277.707,315.629,274.455,319.085,270.508,319.085z"/>
</g>
<path style="fill:#FFFFFF;" d="M229.903,329.785c4.785,0.992,8.501,1.775,12.089,2.184c3.547,0.433,6.813,0.64,10.096,0.639
	c3.282-0.013,6.545-0.22,10.089-0.655c3.584-0.41,7.3-1.186,12.096-2.166c-1.023,4.817-4.256,8.705-8.263,11.432
	c-4.043,2.711-8.989,4.132-13.922,4.124c-4.932-0.007-9.876-1.426-13.915-4.141C234.169,338.472,230.938,334.591,229.903,329.785z"
	/>
<g>
</g>
<g>
</g>
<g>
</g>
<g>
</g>
<g>
</g>
<g>
</g>
<g>
</g>
<g>
</g>
<g>
</g>
<g>
</g>
<g>
</g>
<g>
</g>
<g>
</g>
<g>
</g>
<g>
</g>
</svg>
