<?xml version="1.0" encoding="iso-8859-1"?>
<!-- Generator: Adobe Illustrator 19.0.0, SVG Export Plug-In . SVG Version: 6.00 Build 0)  -->
<svg version="1.1" id="Layer_1" xmlns="http://www.w3.org/2000/svg" xmlns:xlink="http://www.w3.org/1999/xlink" x="0px" y="0px"
	 viewBox="0 0 512.001 512.001" style="enable-background:new 0 0 512.001 512.001;" xml:space="preserve">
<path style="fill:#778082;" d="M407.391,54.703c0,0,25.317,74.178-10.033,143.964c-16.477,3.262-31.263,7.658-41.78-2.859
	c-10.516-10.516-0.287-55.257-16.337-55.257c13.915-0.076-23.115-60.936-12.23-67.987C346.342,60.041,375.066,43.114,407.391,54.703
	z"/>
<g>
	<path style="fill:#FCE8BB;" d="M435.389,346.463c-2.23,0-4.461-0.851-6.162-2.553c-5.17-5.169-14.094-19.307-31.84-82.123
		c-9.532-33.741-17.114-65.858-17.189-66.179c-1.104-4.685,1.8-9.377,6.485-10.481c4.684-1.103,9.377,1.8,10.481,6.485
		c12.228,51.918,34.083,129.668,44.388,139.973c3.404,3.404,3.404,8.921,0,12.324C439.85,345.611,437.618,346.463,435.389,346.463z"
		/>
	<path style="fill:#FCE8BB;" d="M77.079,425.925c-5.071,0-9.182-4.111-9.182-9.182c0-71.871,35.455-111.083,36.965-112.717
		c3.44-3.724,9.251-3.957,12.975-0.515c3.72,3.436,3.955,9.232,0.531,12.958c-0.518,0.574-32.106,36.169-32.106,100.274
		C86.261,421.814,82.15,425.925,77.079,425.925z"/>
	<path style="fill:#FCE8BB;" d="M228.704,355.824c-0.693,0-1.396-0.034-2.106-0.1c-21.774-2.056-47.802-38.814-52.797-46.161
		c-2.852-4.194-1.764-9.905,2.43-12.757c4.194-2.852,9.904-1.764,12.757,2.43c15.507,22.771,32.495,37.561,39.339,38.205
		c0.853,0.077,1.053-0.08,1.423-0.451c10.433-10.433,37.819-96.536,53.933-154.343c1.361-4.884,6.425-7.74,11.31-6.379
		c4.885,1.362,7.741,6.426,6.379,11.31c-0.099,0.356-10.047,35.979-21.93,73.201c-24.613,77.101-33.4,85.888-36.708,89.196
		C238.886,353.824,234.069,355.824,228.704,355.824z"/>
	<path style="fill:#FCE8BB;" d="M371.665,381.193c0,0-1.163,12.646-3.918,29.86c-2.326,14.508-5.79,32.247-10.639,48.384
		c-4.897,16.259-11.202,30.864-19.185,38.846c-7.982-7.982-14.287-22.588-19.172-38.846c-4.848-16.136-8.313-33.876-10.639-48.384
		c-2.755-17.213-3.917-29.86-3.917-29.86H371.665z"/>
</g>
<path style="fill:#EAD5AC;" d="M371.659,381.197c0,0-1.163,12.646-3.917,29.86h-59.635c-2.755-17.213-3.917-29.86-3.917-29.86
	H371.659z"/>
<g>
	<path style="fill:#F7C957;" d="M357.108,459.436c-4.897,16.259-11.202,30.864-19.185,38.846
		c-7.982-7.982-14.287-22.588-19.172-38.846H357.108z"/>
	<path style="fill:#F7C957;" d="M397.35,198.665v82.443H281.117v-82.443c0-19.38,9.488-36.545,24.082-47.098
		c9.561-6.942,21.315-11.018,34.034-11.018c12.561,0,24.204,3.979,33.704,10.773c2.645,1.873,5.117,3.967,7.395,6.256
		C390.849,168.095,397.35,182.627,397.35,198.665z"/>
</g>
<path style="fill:#D5A03C;" d="M351.764,141.923c-4.037-0.888-8.225-1.369-12.529-1.369l0,0c-32.096,0-58.114,26.019-58.114,58.114
	v82.44h25.058v-82.44C306.179,170.875,325.694,147.654,351.764,141.923z"/>
<polygon style="fill:#EC589B;" points="406.923,382.419 271.548,382.419 281.122,281.108 397.349,281.108 "/>
<circle style="fill:#FCE8BB;" cx="338.844" cy="70.279" r="70.279"/>
<g>
	<path style="fill:#EAD5AC;" d="M372.937,151.322c-10.1,5.62-21.731,8.815-34.096,8.815c-12.194,0-23.653-3.11-33.643-8.57
		c9.561-6.942,21.315-11.018,34.034-11.018C351.794,140.548,363.438,144.527,372.937,151.322z"/>
	<path style="fill:#EAD5AC;" d="M300.565,70.276c0-33.307,23.178-61.181,54.279-68.425C349.702,0.653,344.352,0,338.845,0
		c-38.812,0-70.276,31.464-70.276,70.276s31.464,70.277,70.276,70.277c5.506,0,10.857-0.653,15.997-1.851
		C323.742,131.459,300.565,103.584,300.565,70.276z"/>
</g>
<path style="fill:#778082;" d="M409.122,70.277c-77.999,7.995-119.674-49.975-119.674-49.975
	c12.696-12.549,30.141-20.298,49.4-20.298C377.658,0.003,409.122,31.467,409.122,70.277z"/>
<polyline style="fill:#D3468D;" points="306.179,281.108 305.365,382.419 271.548,382.419 281.122,281.108 "/>
<g>
	<path style="fill:#778082;" d="M300.301,80.681c-3.677,0-6.735-3.056-6.734-6.734c0.002-3.67,3.062-6.718,6.728-6.727
		c3.659-0.009,6.737,3.071,6.74,6.727C307.036,77.617,303.966,80.681,300.301,80.681z"/>
	<path style="fill:#778082;" d="M353.496,80.681c-3.808,0-6.941-3.292-6.722-7.103c0.195-3.398,2.985-6.16,6.378-6.345
		c3.648-0.199,6.862,2.709,7.066,6.346C360.434,77.384,357.293,80.681,353.496,80.681z"/>
</g>
<path style="fill:#FFFFFF;" d="M302.494,101.442c5.059,1.049,8.989,1.877,12.783,2.309c3.751,0.458,7.204,0.677,10.675,0.675
	c3.47-0.014,6.921-0.232,10.668-0.694c3.79-0.433,7.719-1.254,12.79-2.291c-1.082,5.094-4.5,9.205-8.737,12.088
	c-4.275,2.867-9.505,4.369-14.722,4.361c-5.215-0.007-10.443-1.508-14.715-4.378C307.005,110.627,303.587,106.523,302.494,101.442z"
	/>
<g>
	<path style="fill:#FCE8BB;" d="M149.194,432.789V512c-5.204-5.204-9.697-13.112-13.577-22.454
		c-5.093-12.267-9.109-26.995-12.219-41.259c-1.15-5.288-2.179-10.492-3.085-15.499L149.194,432.789L149.194,432.789z"/>
	<path style="fill:#FCE8BB;" d="M178.074,432.789c-0.906,5.007-1.935,10.211-3.085,15.499c-3.11,14.263-7.125,28.991-12.219,41.259
		c-3.881,9.341-8.373,17.25-13.577,22.454v-95.592L178.074,432.789z"/>
</g>
<path style="fill:#EAD5AC;" d="M178.074,432.789c-0.906,5.007-1.935,10.211-3.085,15.499h-51.591
	c-1.15-5.288-2.179-10.492-3.085-15.499l28.881-16.381L178.074,432.789z"/>
<path style="fill:#74C194;" d="M94.363,424.517l-1.239,8.268h112.132l-1.239-8.268c-4.552-30.391-6.837-61.08-6.837-91.811V322.5
	c0-26.504-21.486-47.99-47.99-47.99l0,0c-26.504,0-47.99,21.486-47.99,47.99v10.206C101.2,363.436,98.914,394.124,94.363,424.517z"
	/>
<path style="fill:#54AC7C;" d="M102.439,322.5v10.206c0,30.731-2.286,61.419-6.837,91.811l-1.239,8.268h29.497l0.587-8.268
	c2.157-30.391,3.241-61.08,3.241-91.811V322.5c0-26.504,10.182-47.99,22.742-47.99l0,0
	C123.924,274.51,102.439,295.995,102.439,322.5z"/>
<path style="fill:#EAD5AC;" d="M183.127,288.574c-7.86,10.108-20.134,16.62-33.932,16.62c-13.809,0-26.097-6.512-33.944-16.632
	c8.679-8.679,20.673-14.056,33.932-14.056S174.448,279.882,183.127,288.574z"/>
<g>
	<path style="fill:#EC589B;" d="M298.96,175.384c-3.329,0-6.125-2.788-6.121-6.122c0.003-3.328,2.799-6.109,6.121-6.118
		c3.33-0.009,6.118,2.797,6.122,6.118C305.084,172.603,302.296,175.384,298.96,175.384z"/>
	<path style="fill:#EC589B;" d="M330.326,195.708c-3.319-0.648-5.485-3.868-4.836-7.174l0,0c0.648-3.318,3.868-5.485,7.187-4.836
		l0,0c3.318,0.65,5.472,3.868,4.824,7.187l0,0c-0.564,2.913-3.122,4.947-5.998,4.947
		C331.113,195.836,330.705,195.79,330.326,195.708z M344.98,190.834c-0.698-3.305,1.433-6.55,4.738-7.247l0,0
		c3.318-0.686,6.549,1.433,7.247,4.75l0,0c0.686,3.306-1.433,6.55-4.738,7.236l0,0c-0.428,0.086-0.844,0.135-1.261,0.135
		C348.105,195.708,345.561,193.635,344.98,190.834z M310.137,187.505c-2.84-1.824-3.66-5.608-1.836-8.448l0,0
		c1.824-2.852,5.608-3.673,8.459-1.849l0,0c2.84,1.824,3.66,5.619,1.836,8.459l0,0c-1.163,1.824-3.134,2.816-5.155,2.816
		C312.272,188.471,311.124,188.14,310.137,187.505z M363.821,185.387c-1.86-2.817-1.077-6.612,1.751-8.472l0,0
		c2.816-1.86,6.611-1.077,8.472,1.751l0,0c1.86,2.816,1.077,6.623-1.751,8.472l0,0c-1.028,0.686-2.203,1.017-3.354,1.017
		C366.888,188.133,364.953,187.108,363.821,185.387z"/>
</g>
<path style="fill:#EF607B;" d="M383.3,174.895c-3.397,0-6.235-2.919-6.113-6.319c0.121-3.371,3.053-6.087,6.426-5.911
	c3.209,0.167,5.816,2.884,5.809,6.109C389.413,172.11,386.646,174.895,383.3,174.895z"/>
<path style="fill:#74C194;" d="M162.771,489.546c-3.881,9.341-8.373,17.25-13.577,22.454c-5.204-5.204-9.697-13.112-13.577-22.454
	H162.771z"/>
<path style="fill:#F7C957;" d="M344.185,485.47h-12.513c-6.716,0-12.162,5.445-12.162,12.162v0.652h36.836v-0.652
	C356.347,490.915,350.902,485.47,344.185,485.47z"/>
<path style="fill:#74C194;" d="M155.45,499.188h-12.514c-6.716,0-12.162,5.445-12.162,12.162v0.652h36.836v-0.652
	C167.612,504.632,162.166,499.188,155.45,499.188z"/>
<circle style="fill:#FCE8BB;" cx="149.191" cy="222.561" r="58.072"/>
<path style="fill:#EAD5AC;" d="M121.571,222.56c0-26.801,18.161-49.348,42.845-56.04c-4.855-1.315-9.956-2.031-15.227-2.031
	c-32.072,0-58.072,25.999-58.072,58.072s25.999,58.072,58.072,58.072c5.271,0,10.372-0.715,15.227-2.031
	C139.734,271.909,121.571,249.361,121.571,222.56z"/>
<g>
	<path style="fill:#F7C957;" d="M149.19,164.483c0,45.633-56.386,44.146-56.386,44.146
		C99.036,183.282,121.922,164.483,149.19,164.483z"/>
	<path style="fill:#F7C957;" d="M205.576,208.629c0,0-56.386,1.487-56.386-44.146C176.457,164.483,199.344,183.282,205.576,208.629z
		"/>
</g>
<g>
	<path style="fill:#778082;" d="M126.348,232.179c-3.664,0-6.735-3.068-6.734-6.734c0.001-3.757,3.216-6.841,6.96-6.72
		c3.656,0.119,6.625,3.279,6.499,6.941C132.95,229.254,129.945,232.179,126.348,232.179z"/>
	<path style="fill:#778082;" d="M172.026,232.179c-3.827,0-6.978-3.345-6.718-7.173c0.256-3.756,3.68-6.653,7.425-6.243
		c3.179,0.346,5.723,2.928,5.998,6.119C179.067,228.759,175.915,232.179,172.026,232.179z"/>
</g>
<g>
</g>
<g>
</g>
<g>
</g>
<g>
</g>
<g>
</g>
<g>
</g>
<g>
</g>
<g>
</g>
<g>
</g>
<g>
</g>
<g>
</g>
<g>
</g>
<g>
</g>
<g>
</g>
<g>
</g>
</svg>
