<?xml version="1.0" encoding="iso-8859-1"?>
<!-- Generator: Adobe Illustrator 19.0.0, SVG Export Plug-In . SVG Version: 6.00 Build 0)  -->
<svg version="1.1" id="Layer_1" xmlns="http://www.w3.org/2000/svg" xmlns:xlink="http://www.w3.org/1999/xlink" x="0px" y="0px"
	 viewBox="0 0 512 512" style="enable-background:new 0 0 512 512;" xml:space="preserve">
<g>
	<path style="fill:#74C194;" d="M142.203,433.261c-4.809,0-8.708-3.899-8.708-8.708V317.379l-51.283,63.088
		c-1.653,2.034-4.136,3.215-6.757,3.215s-5.104-1.181-6.757-3.215L17.416,317.38v107.174c0,4.809-3.899,8.708-8.708,8.708
		S0,429.363,0,424.554V292.862c0-3.685,2.321-6.972,5.794-8.205c3.474-1.234,7.347-0.146,9.672,2.713l59.99,73.8l59.991-73.8
		c2.324-2.86,6.199-3.946,9.672-2.713c3.473,1.233,5.794,4.52,5.794,8.205v131.692C150.911,429.363,147.012,433.261,142.203,433.261
		z"/>
	<path style="fill:#74C194;" d="M503.292,433.261c-4.809,0-8.708-3.899-8.708-8.708V317.38l-51.282,63.087
		c-1.653,2.034-4.136,3.215-6.757,3.215s-5.104-1.181-6.757-3.215l-51.283-63.087v107.174c0,4.809-3.899,8.708-8.708,8.708
		c-4.809,0-8.708-3.899-8.708-8.708V292.862c0-3.685,2.321-6.972,5.794-8.205c3.474-1.234,7.348-0.146,9.672,2.713l59.991,73.8
		l59.99-73.8c2.324-2.86,6.197-3.946,9.672-2.713c3.473,1.233,5.794,4.52,5.794,8.205v131.692
		C512,429.363,508.101,433.261,503.292,433.261z"/>
	<polygon style="fill:#74C194;" points="305.895,207.614 256.004,272.633 206.125,207.614 225.178,177.74 286.842,177.74 	"/>
</g>
<polygon style="fill:#43AC75;" points="255.998,272.634 206.119,207.615 225.172,177.74 247.859,177.74 241.473,207.615 "/>
<g>
	<path style="fill:#F4C063;" d="M255.998,139.508c-3.206,0-5.805-2.6-5.805-5.805V84.543c0-3.206,2.6-5.805,5.805-5.805
		s5.805,2.6,5.805,5.805v49.159C261.804,136.908,259.205,139.508,255.998,139.508z"/>
	<path style="fill:#F4C063;" d="M290.523,148.053c-1.101,0-2.213-0.312-3.199-0.965c-2.674-1.769-3.407-5.371-1.637-8.045
		l28.759-43.458c1.769-2.674,5.372-3.407,8.045-1.637c2.674,1.769,3.407,5.371,1.637,8.045l-28.759,43.458
		C294.253,147.138,292.406,148.053,290.523,148.053z"/>
	<path style="fill:#F4C063;" d="M320.57,177.44c-2.038,0-4.015-1.075-5.076-2.98c-1.56-2.8-0.555-6.336,2.245-7.896l42.948-23.929
		c2.802-1.56,6.337-0.555,7.896,2.245c1.56,2.8,0.555,6.336-2.245,7.896l-42.948,23.929
		C322.496,177.204,321.526,177.44,320.57,177.44z"/>
	<path style="fill:#F4C063;" d="M378.532,225.008c-0.208,0-0.417-0.012-0.627-0.034l-43.145-4.633
		c-3.188-0.342-5.494-3.205-5.153-6.392c0.341-3.188,3.218-5.494,6.392-5.153l43.145,4.633c3.188,0.342,5.494,3.205,5.153,6.392
		C383.977,222.798,381.46,225.008,378.532,225.008z"/>
	<path style="fill:#F4C063;" d="M221.473,148.053c-1.883,0-3.729-0.915-4.846-2.602l-28.759-43.458
		c-1.769-2.674-1.037-6.276,1.637-8.045c2.673-1.769,6.276-1.037,8.045,1.637l28.759,43.458c1.769,2.674,1.037,6.276-1.637,8.045
		C223.686,147.741,222.574,148.053,221.473,148.053z"/>
	<path style="fill:#F4C063;" d="M191.427,177.44c-0.957,0-1.926-0.237-2.82-0.735l-42.948-23.929c-2.8-1.56-3.806-5.096-2.245-7.896
		c1.562-2.8,5.098-3.806,7.896-2.245l42.948,23.929c2.8,1.56,3.806,5.096,2.245,7.896
		C195.441,176.365,193.464,177.44,191.427,177.44z"/>
	<path style="fill:#F4C063;" d="M133.465,225.008c-2.928,0-5.445-2.208-5.765-5.186c-0.343-3.188,1.965-6.049,5.153-6.392
		l43.145-4.633c3.177-0.344,6.049,1.965,6.392,5.153c0.343,3.188-1.965,6.049-5.153,6.392l-43.145,4.633
		C133.882,224.996,133.671,225.008,133.465,225.008z"/>
</g>
<polygon style="fill:#74C194;" points="305.895,207.614 206.125,207.614 225.178,177.74 286.842,177.74 "/>
<path style="fill:#F4C063;" d="M273.338,274.568c0.05-0.534,0.081-1.074,0.081-1.621c0-9.618-7.798-17.416-17.416-17.416
	c-9.618,0-17.416,7.798-17.416,17.416c0,0.547,0.033,1.086,0.081,1.619c-35.264,7.902-61.622,39.373-61.622,77.02
	c0,43.604,35.348,78.952,78.952,78.952s78.952-35.348,78.952-78.952C334.953,313.941,308.598,282.472,273.338,274.568z
	 M256.001,399.359c-26.385,0-47.774-21.389-47.774-47.774c0-26.385,21.389-47.774,47.774-47.774s47.774,21.389,47.774,47.774
	C303.773,377.97,282.384,399.359,256.001,399.359z"/>
<g>
</g>
<g>
</g>
<g>
</g>
<g>
</g>
<g>
</g>
<g>
</g>
<g>
</g>
<g>
</g>
<g>
</g>
<g>
</g>
<g>
</g>
<g>
</g>
<g>
</g>
<g>
</g>
<g>
</g>
</svg>
