<?xml version="1.0" encoding="iso-8859-1"?>
<!-- Generator: Adobe Illustrator 19.0.0, SVG Export Plug-In . SVG Version: 6.00 Build 0)  -->
<svg version="1.1" id="Layer_1" xmlns="http://www.w3.org/2000/svg" xmlns:xlink="http://www.w3.org/1999/xlink" x="0px" y="0px"
	 viewBox="0 0 511.999 511.999" style="enable-background:new 0 0 511.999 511.999;" xml:space="preserve">
<g>
	<path style="fill:#EAA0E3;" d="M105.109,167.643c6.458-7.779,10.347-17.762,10.347-28.639v-6.261
		c0-24.759-20.143-44.902-44.902-44.902H10.331C4.625,87.84,0,92.465,0,98.171v75.405v92.333c0,5.706,4.625,10.331,10.331,10.331
		h73.743c29.038,0,52.663-23.625,52.663-52.664v-7.666C136.736,194.346,123.705,175.779,105.109,167.643z M20.661,108.501h49.892
		c13.367,0,24.241,10.875,24.241,24.241v6.261c0,13.367-10.875,24.241-24.241,24.241H20.661V108.501z M116.075,223.576
		c0,17.647-14.356,32.003-32.002,32.003H20.661v-71.672h49.892h13.52c17.646,0,32.002,14.356,32.002,32.003V223.576z"/>
	<path style="fill:#EAA0E3;" d="M261.407,108.501c5.706,0,10.331-4.625,10.331-10.331s-4.625-10.331-10.331-10.331h-96.163
		c-5.706,0-10.331,4.625-10.331,10.331v167.739c0,5.706,4.625,10.331,10.331,10.331h96.163c5.706,0,10.331-4.625,10.331-10.331
		c0-5.706-4.625-10.331-10.331-10.331h-85.832v-63.208h27.373c5.706,0,10.331-4.625,10.331-10.331
		c0-5.706-4.625-10.331-10.331-10.331h-27.373v-63.208H261.407z"/>
	<path style="fill:#EAA0E3;" d="M343.779,87.84h-12.293c-28.819,0-52.265,23.446-52.265,52.266
		c0,28.819,23.446,52.265,52.265,52.265h12.293c17.427,0,31.603,14.178,31.603,31.605s-14.178,31.603-31.603,31.603h-12.293
		c-17.427,0-31.603-14.178-31.603-31.603v-3.308c0-5.706-4.625-10.331-10.331-10.331c-5.706,0-10.331,4.625-10.331,10.331v3.308
		c0,28.819,23.446,52.265,52.265,52.265h12.293c28.819,0,52.265-23.446,52.265-52.265s-23.446-52.266-52.265-52.266h-12.293
		c-17.427,0-31.603-14.178-31.603-31.603c0-17.427,14.178-31.605,31.603-31.605h12.293c17.427,0,31.603,14.178,31.603,31.605v3.308
		c0,5.706,4.625,10.331,10.331,10.331c5.706,0,10.331-4.625,10.331-10.331v-3.308C396.044,111.287,372.598,87.84,343.779,87.84z"/>
	<path style="fill:#EAA0E3;" d="M501.669,87.84h-93.715c-5.706,0-10.331,4.625-10.331,10.331s4.625,10.331,10.331,10.331h36.527
		v157.408c0,5.706,4.625,10.331,10.331,10.331s10.331-4.625,10.331-10.331V108.501h36.527c5.706,0,10.331-4.625,10.331-10.331
		S507.374,87.84,501.669,87.84z"/>
</g>
<g>
	<path style="fill:#EC589B;" d="M269.779,302.481c-10.545,0-19.994,5.428-26.298,13.953c-6.303-8.525-15.754-13.953-26.298-13.953
		c-22.556,0-40.907,20.966-40.907,46.739c0,30.683,34.233,59.071,63.548,74.059c1.148,0.587,2.404,0.88,3.658,0.88
		c1.255,0,2.509-0.294,3.658-0.88c29.316-14.987,63.548-43.376,63.548-74.059C310.687,323.447,292.337,302.481,269.779,302.481z"/>
	<path style="fill:#EC589B;" d="M140.011,422.039c-4.438,0-8.035-3.597-8.035-8.035v-86.797l-41.19,50.673
		c-1.525,1.877-3.815,2.966-6.235,2.966c-2.42,0-4.71-1.089-6.235-2.966l-41.19-50.673v86.797c0,4.438-3.597,8.035-8.035,8.035
		s-8.035-3.597-8.035-8.035v-109.42c0-3.401,2.141-6.432,5.345-7.571s6.778-0.137,8.923,2.503l49.225,60.557l49.225-60.557
		c2.145-2.638,5.72-3.641,8.923-2.503c3.205,1.139,5.345,4.17,5.345,7.571v109.42C148.046,418.441,144.449,422.039,140.011,422.039z
		"/>
	<path style="fill:#EC589B;" d="M457.871,422.039c-4.438,0-8.035-3.597-8.035-8.035v-86.797l-41.19,50.673
		c-1.526,1.877-3.815,2.966-6.235,2.966s-4.71-1.089-6.235-2.966l-41.19-50.673v86.797c0,4.438-3.597,8.035-8.035,8.035
		s-8.035-3.597-8.035-8.035v-109.42c0-3.401,2.141-6.432,5.345-7.571c3.203-1.139,6.778-0.137,8.923,2.503l49.225,60.557
		l49.225-60.557c2.145-2.639,5.717-3.64,8.923-2.503c3.205,1.139,5.346,4.17,5.346,7.571v109.42
		C465.906,418.441,462.31,422.039,457.871,422.039z"/>
</g>
<g>
</g>
<g>
</g>
<g>
</g>
<g>
</g>
<g>
</g>
<g>
</g>
<g>
</g>
<g>
</g>
<g>
</g>
<g>
</g>
<g>
</g>
<g>
</g>
<g>
</g>
<g>
</g>
<g>
</g>
</svg>
