<?xml version="1.0" encoding="iso-8859-1"?>
<!-- Generator: Adobe Illustrator 19.0.0, SVG Export Plug-In . SVG Version: 6.00 Build 0)  -->
<svg version="1.1" id="Layer_1" xmlns="http://www.w3.org/2000/svg" xmlns:xlink="http://www.w3.org/1999/xlink" x="0px" y="0px"
	 viewBox="0 0 512 512" style="enable-background:new 0 0 512 512;" xml:space="preserve">
<g>
	<polygon style="fill:#EC589B;" points="246.316,366.798 237.887,397.047 205.834,512 163.488,464.81 102.848,483.283 
		137.358,359.509 144.802,332.833 203.78,339.125 	"/>
	<polygon style="fill:#EC589B;" points="409.16,483.283 348.507,464.81 306.173,512 274.108,397.047 265.679,366.81 
		308.215,339.125 367.205,332.833 374.649,359.509 	"/>
</g>
<g>
	<path style="fill:#D3468D;" d="M203.78,339.125l42.536,27.673l-8.429,30.249c-11.646-7.503-22.402-19.481-34.107-23.28
		c-18.116-5.888-44.566,4.238-59.643-6.743c-2.742-2.006-4.95-4.559-6.779-7.515l7.444-26.676L203.78,339.125z"/>
	<path style="fill:#D3468D;" d="M374.649,359.509c-1.828,2.956-4.036,5.508-6.779,7.515c-15.089,10.981-41.539,0.855-59.655,6.743
		c-11.705,3.799-22.461,15.777-34.107,23.28l-8.429-30.237l42.536-27.685l58.99-6.292L374.649,359.509z"/>
</g>
<path style="fill:#EAA0E3;" d="M424.922,190.296c0-19.376,17.785-41.335,12.109-58.818c-5.884-18.12-33.376-25.387-44.352-40.469
	c-11.086-15.234-9.578-43.587-24.812-54.674c-15.082-10.977-41.528-0.855-59.648-6.738C290.734,23.921,275.376,0,256,0
	s-34.734,23.921-52.216,29.598c-18.12,5.884-44.566-4.238-59.649,6.738c-15.234,11.086-13.726,39.44-24.812,54.674
	c-10.977,15.082-38.469,22.35-44.352,40.468c-5.677,17.483,12.108,39.444,12.108,58.819s-17.785,41.335-12.109,58.818
	c5.884,18.12,33.376,25.387,44.352,40.469c11.086,15.234,9.579,43.587,24.812,54.674c15.082,10.977,41.528,0.855,59.648,6.738
	c17.483,5.677,32.842,29.598,52.217,29.598s34.734-23.921,52.216-29.598c18.12-5.884,44.566,4.238,59.649-6.738
	c15.234-11.086,13.726-39.44,24.812-54.674c10.977-15.082,38.469-22.35,44.352-40.468
	C442.706,231.632,424.922,209.672,424.922,190.296z"/>
<circle style="fill:#F4C063;" cx="256" cy="190.29" r="139.824"/>
<path style="fill:#D5A03C;" d="M153.574,190.298c0-70.88,52.743-129.433,121.123-138.572c-6.116-0.817-12.356-1.248-18.697-1.248
	c-77.22,0-139.819,62.599-139.819,139.819S178.78,330.117,256,330.117c6.341,0,12.58-0.43,18.697-1.248
	C206.318,319.729,153.574,261.176,153.574,190.298z"/>
<g>
	<path style="fill:#EC589B;" d="M256,337.834c-81.352,0-147.536-66.184-147.536-147.536S174.648,42.762,256,42.762
		s147.536,66.184,147.536,147.536C403.536,271.649,337.352,337.834,256,337.834z M256,58.194
		c-72.842,0-132.103,59.261-132.103,132.103S183.158,322.399,256,322.399s132.103-59.261,132.103-132.103S328.842,58.194,256,58.194
		z"/>
	<path style="fill:#EC589B;" d="M186.882,187.636c11.282,0,20.461-9.178,20.461-20.461c0-7.462-4.028-13.985-10.011-17.559
		c1.918-2.828,3.043-6.237,3.043-9.906c0-9.754-7.935-17.689-17.689-17.689h-18.697c-2.95,0-5.342,2.392-5.342,5.342v24.693v30.237
		c0,2.95,2.392,5.342,5.342,5.342H186.882z M186.882,176.952h-17.551v-19.553h13.354h4.198c5.391,0,9.776,4.385,9.776,9.776
		C196.66,172.566,192.272,176.952,186.882,176.952z M169.33,132.705h13.354c3.862,0,7.004,3.142,7.004,7.004
		s-3.141,7.004-7.004,7.004H169.33V132.705z"/>
	<path style="fill:#EC589B;" d="M251.552,182.294c0-2.95-2.392-5.342-5.342-5.342h-14.277v-16.781h7.004
		c2.95,0,5.342-2.392,5.342-5.342c0-2.95-2.392-5.342-5.342-5.342h-7.004v-16.781h14.277c2.95,0,5.342-2.392,5.342-5.342
		c0-2.95-2.392-5.342-5.342-5.342H226.59c-2.95,0-5.342,2.392-5.342,5.342v54.93c0,2.95,2.392,5.342,5.342,5.342h19.619
		C249.16,187.636,251.552,185.244,251.552,182.294z"/>
	<path style="fill:#EC589B;" d="M306.504,168.561c0-10.518-8.557-19.075-19.074-19.075h-4.026c-4.626,0-8.39-3.763-8.39-8.39
		c0-4.626,3.763-8.39,8.39-8.39h9.736c1.478,0,2.679,1.203,2.679,2.679c0,2.95,2.392,5.342,5.342,5.342
		c2.95,0,5.342-2.392,5.342-5.342c0-7.37-5.995-13.364-13.364-13.364h-9.736c-10.517,0-19.074,8.557-19.074,19.074
		c0,10.517,8.557,19.074,19.074,19.074h4.026c4.626,0,8.39,3.763,8.39,8.391c0,4.626-3.763,8.39-8.39,8.39h-9.736
		c-1.478,0-2.679-1.203-2.679-2.679c0-2.95-2.392-5.342-5.342-5.342s-5.342,2.392-5.342,5.342c0,7.37,5.995,13.364,13.364,13.364
		h9.736C297.947,187.636,306.504,179.079,306.504,168.561z"/>
	<path style="fill:#EC589B;" d="M354.568,122.02h-30.689c-2.95,0-5.342,2.392-5.342,5.342c0,2.95,2.392,5.342,5.342,5.342h10.002
		v49.588c0,2.95,2.392,5.342,5.342,5.342s5.342-2.392,5.342-5.342v-49.588h10.002c2.95,0,5.342-2.392,5.342-5.342
		S357.518,122.02,354.568,122.02z"/>
	<path style="fill:#EC589B;" d="M212.607,206.627c-2.13-0.754-4.506-0.089-5.933,1.664l-17.43,21.443l-17.43-21.443
		c-1.426-1.753-3.804-2.419-5.933-1.664c-2.131,0.757-3.554,2.773-3.554,5.035v42.567c0,2.95,2.392,5.342,5.342,5.342
		s5.342-2.392,5.342-5.342v-27.527l12.088,14.87c1.014,1.248,2.537,1.973,4.146,1.973c1.609,0,3.131-0.724,4.146-1.973l12.088-14.87
		v27.527c0,2.95,2.392,5.342,5.342,5.342s5.342-2.392,5.342-5.342v-42.567C216.161,209.4,214.737,207.384,212.607,206.627z"/>
	<path style="fill:#EC589B;" d="M346.947,206.627c-2.13-0.754-4.506-0.089-5.933,1.664l-17.43,21.443l-17.43-21.443
		c-1.426-1.753-3.804-2.419-5.933-1.664c-2.131,0.757-3.554,2.773-3.554,5.035v42.567c0,2.95,2.392,5.342,5.342,5.342
		c2.95,0,5.342-2.392,5.342-5.342v-27.527l12.088,14.87c1.014,1.248,2.537,1.973,4.146,1.973c1.609,0,3.131-0.724,4.146-1.973
		l12.088-14.87v27.527c0,2.95,2.392,5.342,5.342,5.342c2.95,0,5.342-2.392,5.342-5.342v-42.567
		C350.502,209.4,349.078,207.384,346.947,206.627z"/>
	<path style="fill:#EC589B;" d="M256,206.32c-16.58,0-24.986,8.213-24.986,24.412c0,19.922,12.549,28.84,24.986,28.84
		c12.438,0,24.986-8.918,24.986-28.84C280.986,214.532,272.58,206.32,256,206.32z M256,248.887c-8.955,0-14.302-6.787-14.302-18.155
		c0-10.136,3.742-13.727,14.302-13.727c10.56,0,14.302,3.592,14.302,13.727C270.302,242.1,264.955,248.887,256,248.887z"/>
</g>
<g>
</g>
<g>
</g>
<g>
</g>
<g>
</g>
<g>
</g>
<g>
</g>
<g>
</g>
<g>
</g>
<g>
</g>
<g>
</g>
<g>
</g>
<g>
</g>
<g>
</g>
<g>
</g>
<g>
</g>
</svg>
