<?xml version="1.0" encoding="iso-8859-1"?>
<!-- Generator: Adobe Illustrator 19.0.0, SVG Export Plug-In . SVG Version: 6.00 Build 0)  -->
<svg version="1.1" id="Layer_1" xmlns="http://www.w3.org/2000/svg" xmlns:xlink="http://www.w3.org/1999/xlink" x="0px" y="0px"
	 viewBox="0 0 512 512" style="enable-background:new 0 0 512 512;" xml:space="preserve">
<path style="fill:#EC589B;" d="M376.703,137.602c11.805-25.963,6.289-43.852-2.426-55.355
	c-8.799-11.624-12.722-26.072-11.551-40.605C364.331,21.775,352.623,0,326.008,0c-22.741,0-42.97,47.678-55.765,86.907h-28.486
	C228.962,47.678,208.733,0,185.992,0c-26.615,0-38.323,21.775-36.718,41.643c1.171,14.533-2.752,28.981-11.551,40.605
	c-8.715,11.503-14.231,29.391-2.426,55.355"/>
<g>
	<path style="fill:#D3468D;" d="M295.159,102.177l42.944-12.856l-34.356,28.795c-3.912,3.28-9.742,2.767-13.021-1.147
		c-3.279-3.912-2.767-9.742,1.147-13.021C292.856,103.124,294.005,102.528,295.159,102.177z"/>
	<path style="fill:#D3468D;" d="M208.252,116.602l-34.356-28.795l42.944,12.856c4.891,1.464,7.668,6.616,6.204,11.505
		c-1.464,4.891-6.616,7.668-11.505,6.204C210.31,118.006,209.18,117.373,208.252,116.602z"/>
</g>
<path style="fill:#EC589B;" d="M276.213,86.907h-40.426c-12.836,0-23.24,10.405-23.24,23.24v27.455h86.907v-27.455
	C299.453,97.311,289.047,86.907,276.213,86.907z"/>
<path style="fill:#D3468D;" d="M258.724,86.907h-22.937c-12.836,0-23.24,10.405-23.24,23.24v27.455h22.937v-27.455
	C235.484,97.311,245.889,86.907,258.724,86.907z"/>
<rect x="72.303" y="231.98" style="fill:#F4C063;" width="367.397" height="280.02"/>
<rect x="72.303" y="222.831" style="fill:#D5A03C;" width="367.397" height="43.719"/>
<g>
	<rect x="126.847" y="231.98" style="fill:#74C194;" width="48.704" height="280.02"/>
	<rect x="231.642" y="231.98" style="fill:#74C194;" width="48.716" height="280.02"/>
	<rect x="336.449" y="231.98" style="fill:#74C194;" width="48.704" height="280.02"/>
</g>
<g>
	<rect x="126.847" y="231.98" style="fill:#46AF75;" width="48.704" height="34.569"/>
	<rect x="231.642" y="231.98" style="fill:#46AF75;" width="48.716" height="34.569"/>
	<rect x="336.449" y="231.98" style="fill:#46AF75;" width="48.704" height="34.569"/>
</g>
<rect x="43.32" y="131.567" style="fill:#F4C063;" width="425.359" height="103.431"/>
<g>
	<rect x="74.45" y="131.567" style="fill:#74C194;" width="48.704" height="103.431"/>
	<rect x="179.245" y="131.567" style="fill:#74C194;" width="48.704" height="103.431"/>
	<rect x="284.052" y="131.567" style="fill:#74C194;" width="48.704" height="103.431"/>
	<rect x="388.846" y="131.567" style="fill:#74C194;" width="48.704" height="103.431"/>
</g>
<g>
</g>
<g>
</g>
<g>
</g>
<g>
</g>
<g>
</g>
<g>
</g>
<g>
</g>
<g>
</g>
<g>
</g>
<g>
</g>
<g>
</g>
<g>
</g>
<g>
</g>
<g>
</g>
<g>
</g>
</svg>
