<?xml version="1.0" encoding="iso-8859-1"?>
<!-- Generator: Adobe Illustrator 19.0.0, SVG Export Plug-In . SVG Version: 6.00 Build 0)  -->
<svg version="1.1" id="Layer_1" xmlns="http://www.w3.org/2000/svg" xmlns:xlink="http://www.w3.org/1999/xlink" x="0px" y="0px"
	 viewBox="0 0 512 512" style="enable-background:new 0 0 512 512;" xml:space="preserve">
<path style="fill:#F4C063;" d="M340.728,101.674h95.017v375.174c0,19.415-15.738,35.152-35.152,35.152H111.408
	c-19.415,0-35.152-15.738-35.152-35.152V101.674h95.017"/>
<g>
	<path style="fill:#EC589B;" d="M205.166,133.607V33.891h101.674v99.715c0,5.072,2.271,9.876,6.19,13.094l0,0
		c11.058,9.084,27.701,1.216,27.701-13.094V18.358C340.731,8.22,332.512,0,322.372,0h-132.74c-10.14,0-18.358,8.22-18.358,18.358
		v115.248c0,14.311,16.643,22.178,27.701,13.094l0,0C202.895,143.482,205.166,138.678,205.166,133.607z"/>
	<path style="fill:#EC589B;" d="M256,384.908c-1.134,0-2.268-0.265-3.306-0.796c-11.835-6.051-22.845-13.983-31.001-22.336
		c-10.7-10.959-16.125-22.041-16.125-32.942c0-19.575,14.016-35.5,31.245-35.5c7.546,0,14.363,3.584,19.186,9.325
		c4.823-5.74,11.64-9.325,19.186-9.325c17.229,0,31.245,15.925,31.245,35.5c0,10.901-5.425,21.985-16.125,32.942
		c-8.156,8.353-19.166,16.285-31.001,22.336C258.267,384.643,257.134,384.908,256,384.908z M236.814,307.86
		c-9.22,0-16.72,9.408-16.72,20.975c0,14.429,18.03,30.676,35.907,40.584c17.876-9.907,35.908-26.154,35.908-40.584
		c0-11.565-7.501-20.975-16.72-20.975c-6.575,0-11.925,6.876-11.925,15.327c0,4.01-3.251,7.262-7.262,7.262
		c-4.01,0-7.262-3.252-7.262-7.262C248.738,314.735,243.389,307.86,236.814,307.86z"/>
	<path style="fill:#EC589B;" d="M180.511,383.362c-4.01,0-7.262-3.252-7.262-7.262v-59.382l-27.564,33.909
		c-1.379,1.696-3.45,2.681-5.636,2.681l0,0c-2.186,0-4.257-0.985-5.636-2.681l-27.563-33.909V376.1c0,4.01-3.252,7.262-7.262,7.262
		s-7.262-3.252-7.262-7.262v-79.831c0-3.074,1.935-5.815,4.832-6.844c2.896-1.031,6.127-0.123,8.066,2.262l34.826,42.843
		l34.827-42.843c1.939-2.386,5.168-3.292,8.066-2.262c2.896,1.029,4.832,3.769,4.832,6.844V376.1
		C187.773,380.11,184.521,383.362,180.511,383.362z"/>
	<path style="fill:#EC589B;" d="M412.414,383.362c-4.01,0-7.262-3.252-7.262-7.262v-59.382l-27.563,33.909
		c-1.38,1.696-3.45,2.681-5.636,2.681c-2.186,0-4.257-0.985-5.636-2.681l-27.563-33.909V376.1c0,4.01-3.252,7.262-7.262,7.262
		s-7.262-3.252-7.262-7.262v-79.831c0-3.074,1.935-5.815,4.832-6.844c2.893-1.029,6.127-0.123,8.066,2.262l34.826,42.843
		l34.826-42.843c1.94-2.386,5.171-3.292,8.066-2.262c2.898,1.029,4.832,3.769,4.832,6.844V376.1
		C419.677,380.11,416.424,383.362,412.414,383.362z"/>
</g>
<g>
</g>
<g>
</g>
<g>
</g>
<g>
</g>
<g>
</g>
<g>
</g>
<g>
</g>
<g>
</g>
<g>
</g>
<g>
</g>
<g>
</g>
<g>
</g>
<g>
</g>
<g>
</g>
<g>
</g>
</svg>
