<?xml version="1.0" encoding="iso-8859-1"?>
<!-- Generator: Adobe Illustrator 19.0.0, SVG Export Plug-In . SVG Version: 6.00 Build 0)  -->
<svg version="1.1" id="Layer_1" xmlns="http://www.w3.org/2000/svg" xmlns:xlink="http://www.w3.org/1999/xlink" x="0px" y="0px"
	 viewBox="0 0 512 512" style="enable-background:new 0 0 512 512;" xml:space="preserve">
<g>
	<polyline style="fill:#D8B356;" points="239.298,199.868 74.242,199.868 0,199.868 31.707,260.767 0,321.677 61.366,321.677 	"/>
	<polyline style="fill:#D8B356;" points="450.634,321.677 512,321.677 480.293,260.767 512,199.868 437.757,199.868 
		239.298,199.868 	"/>
</g>
<path style="fill:#EC589B;" d="M437.295,212.74c0,54.202-42.465,107.602-95.643,150.033c-27.245,21.738-57.294,40.607-85.886,55.225
	c-29.215-14.93-59.953-34.31-87.666-56.649c-52.333-42.198-93.863-95.02-93.863-148.609c0-65.571,45.157-118.738,100.849-118.738
	c44.567,0,80.679,42.531,80.679,94.997c0-52.466,36.123-94.997,80.679-94.997C392.149,94.002,437.295,147.169,437.295,212.74z"/>
<path style="fill:#D64D6E;" d="M341.652,352.449v10.324c-27.245,21.738-57.294,40.607-85.886,55.225
	c-29.215-14.93-59.953-34.31-87.666-56.649v-8.9H341.652z"/>
<path style="fill:#D3468D;" d="M255.771,417.998C171.376,374.855,74.242,294.71,74.242,212.74
	c0-65.571,45.146-118.738,100.849-118.738c3.927,0,7.799,0.334,11.581,0.979c-36.59,7.487-64.859,57.361-64.859,117.759
	C121.813,294.71,193.504,374.855,255.771,417.998z"/>
<rect x="61.366" y="249.926" style="fill:#F4C063;" width="388.801" height="121.82"/>
<g>
	<path style="fill:#43AC75;" d="M195.434,349.35c-3.379,0-6.119-2.739-6.119-6.119v-48.174l-23.618,27.745
		c-1.164,1.366-2.866,2.153-4.659,2.153c-1.793,0-3.497-0.787-4.659-2.153l-23.618-27.745v48.174c0,3.38-2.74,6.119-6.119,6.119
		s-6.119-2.739-6.119-6.119v-64.802c0-2.564,1.6-4.856,4.006-5.743c2.405-0.886,5.109-0.177,6.773,1.776l29.736,34.932
		l29.736-34.932c1.663-1.952,4.367-2.661,6.773-1.776c2.406,0.886,4.006,3.178,4.006,5.743v64.802
		C201.553,346.611,198.812,349.35,195.434,349.35z"/>
	<path style="fill:#43AC75;" d="M384.901,349.35c-3.379,0-6.119-2.739-6.119-6.119v-48.174l-23.617,27.745
		c-1.163,1.366-2.866,2.153-4.659,2.153l0,0c-1.793,0-3.498-0.787-4.659-2.153l-23.617-27.744v48.174c0,3.38-2.74,6.119-6.119,6.119
		c-3.379,0-6.119-2.739-6.119-6.119V278.43c0-2.564,1.6-4.856,4.006-5.743c2.406-0.887,5.11-0.176,6.773,1.776l29.736,34.932
		l29.736-34.932c1.663-1.952,4.368-2.661,6.773-1.776c2.406,0.886,4.006,3.178,4.006,5.743v64.802
		C391.02,346.611,388.28,349.35,384.901,349.35z"/>
	<path style="fill:#43AC75;" d="M255.771,349.35c-22.34,0-40.515-17.28-40.515-38.52c0-21.24,18.175-38.52,40.515-38.52
		s40.515,17.28,40.515,38.52C296.286,332.07,278.111,349.35,255.771,349.35z M255.771,284.548c-15.593,0-28.278,11.79-28.278,26.282
		s12.685,26.282,28.278,26.282s28.278-11.79,28.278-26.282S271.364,284.548,255.771,284.548z"/>
</g>
<g>
</g>
<g>
</g>
<g>
</g>
<g>
</g>
<g>
</g>
<g>
</g>
<g>
</g>
<g>
</g>
<g>
</g>
<g>
</g>
<g>
</g>
<g>
</g>
<g>
</g>
<g>
</g>
<g>
</g>
</svg>
