<?xml version="1.0" encoding="iso-8859-1"?>
<!-- Generator: Adobe Illustrator 19.0.0, SVG Export Plug-In . SVG Version: 6.00 Build 0)  -->
<svg version="1.1" id="Layer_1" xmlns="http://www.w3.org/2000/svg" xmlns:xlink="http://www.w3.org/1999/xlink" x="0px" y="0px"
	 viewBox="0 0 512 512" style="enable-background:new 0 0 512 512;" xml:space="preserve">
<polyline style="fill:#89C1C1;" points="474.53,143.672 512,368.328 394.299,368.328 "/>
<polygon style="fill:#C3F6F9;" points="77.566,368.328 437.06,368.328 474.53,143.672 37.47,143.672 0,368.328 47.479,368.328 "/>
<g>
	<path style="fill:#EC589B;" d="M241.466,269.389c-2.294-1.289-5.158-0.939-7.072,0.865l-33.421,31.46l-19.413-30.323
		c-1.318-2.057-3.748-3.116-6.148-2.675c-2.403,0.439-4.301,2.287-4.807,4.677l-12.331,58.427c-0.686,3.252,1.394,6.443,4.645,7.131
		c0.419,0.089,0.836,0.131,1.248,0.131c2.784,0,5.284-1.944,5.883-4.775l9.297-44.052l15.403,24.057
		c0.965,1.508,2.553,2.508,4.329,2.728c1.78,0.218,3.56-0.363,4.863-1.591l24.726-23.275l-8.368,39.648
		c-0.686,3.252,1.394,6.443,4.645,7.129c3.252,0.688,6.443-1.394,7.131-4.645l12.331-58.427
		C244.949,273.305,243.757,270.677,241.466,269.389z"/>
	<path style="fill:#EC589B;" d="M412.299,269.389c-2.293-1.289-5.158-0.939-7.072,0.865l-33.421,31.46l-19.413-30.323
		c-1.317-2.057-3.749-3.116-6.148-2.675c-2.403,0.439-4.301,2.287-4.807,4.677l-12.331,58.427c-0.686,3.252,1.394,6.443,4.645,7.131
		c3.253,0.688,6.443-1.394,7.13-4.644l9.297-44.052l15.403,24.057c0.965,1.508,2.553,2.508,4.329,2.728
		c1.775,0.217,3.56-0.363,4.863-1.591l24.728-23.275l-8.368,39.647c-0.686,3.252,1.394,6.443,4.645,7.131
		c0.419,0.089,0.836,0.131,1.248,0.131c2.784,0,5.284-1.944,5.883-4.775l12.331-58.427
		C415.783,273.305,414.59,270.677,412.299,269.389z"/>
	<path style="fill:#EC589B;" d="M292.922,268.619c-20.127,0-39.043,14.929-43.067,33.988l0,0
		c-1.983,9.403,0.007,18.385,5.608,25.291c5.762,7.106,14.922,11.183,25.128,11.183c20.128,0,39.043-14.929,43.066-33.988
		c1.983-9.403-0.007-18.385-5.608-25.291C312.287,272.694,303.128,268.619,292.922,268.619z M311.882,302.607
		c-2.794,13.247-17.124,24.439-31.29,24.439c-6.658,0-12.262-2.389-15.781-6.727c-3.271-4.034-4.4-9.441-3.18-15.226l0,0
		c2.796-13.248,17.125-24.439,31.291-24.439c6.658,0,12.261,2.389,15.78,6.727C311.973,291.414,313.102,296.822,311.882,302.607z"/>
	<path style="fill:#EC589B;" d="M106.977,207.156c3.874-3.902,6.703-8.857,7.792-14.328c1.315-6.603-0.179-13.131-4.103-17.911
		c-3.903-4.756-9.689-7.376-16.291-7.376H76.28c-2.87,0-5.341,2.028-5.901,4.843l-7.204,36.191l-7.204,36.191
		c-0.353,1.767,0.106,3.598,1.249,4.992c1.142,1.392,2.85,2.2,4.651,2.2h26.041c12.914,0,25.039-10.075,27.599-22.938
		c1.315-6.602-0.181-13.131-4.103-17.911C110.127,209.544,108.626,208.239,106.977,207.156z M81.218,179.573h13.157
		c2.933,0,5.413,1.057,6.989,2.975c1.651,2.012,2.222,4.828,1.603,7.928c-1.43,7.183-8.661,13.251-15.794,13.251H76.412
		L81.218,179.573z M103.709,226.667c-1.43,7.183-8.664,13.253-15.797,13.253H69.205l4.808-24.156h13.159h7.945
		c2.933,0,5.413,1.057,6.989,2.976C103.756,220.752,104.326,223.567,103.709,226.667z"/>
	<path style="fill:#EC589B;" d="M174.115,245.937c0-3.323-2.693-6.017-6.017-6.017h-28.055l4.808-24.156h12.756
		c3.324,0,6.017-2.695,6.017-6.017s-2.693-6.017-6.017-6.017h-10.361l4.808-24.156h30.451c3.324,0,6.017-2.695,6.017-6.017
		s-2.693-6.017-6.017-6.017h-35.388c-2.87,0-5.341,2.028-5.901,4.843l-7.194,36.138c-0.002,0.011-0.004,0.022-0.006,0.032
		l-7.209,36.211c-0.353,1.767,0.106,3.598,1.249,4.992c1.142,1.392,2.85,2.2,4.651,2.2h35.388
		C171.422,251.955,174.115,249.26,174.115,245.937z"/>
	<path style="fill:#EC589B;" d="M240.97,189.907c-0.65,3.259,1.467,6.428,4.726,7.076c3.27,0.646,6.428-1.468,7.076-4.726
		l0.295-1.481c1.351-6.785-0.183-13.491-4.21-18.4c-4.006-4.882-9.949-7.572-16.731-7.572h-5.505
		c-13.298,0-25.782,10.375-28.417,23.62c-1.352,6.785,0.183,13.491,4.21,18.4c4.006,4.882,9.949,7.572,16.731,7.572h5.505
		c3.112,0,5.749,1.126,7.428,3.17c1.757,2.142,2.366,5.132,1.713,8.416c-1.504,7.554-9.113,13.937-16.616,13.937h-5.505
		c-3.111,0-5.749-1.126-7.427-3.171c-1.758-2.142-2.366-5.132-1.713-8.416l0.295-1.481c0.65-3.259-1.467-6.428-4.726-7.076
		c-3.267-0.649-6.428,1.468-7.076,4.726l-0.295,1.481c-1.351,6.785,0.183,13.492,4.211,18.4c4.005,4.882,9.948,7.572,16.729,7.572
		h5.505c13.298,0,25.781-10.376,28.419-23.622c1.349-6.785-0.185-13.492-4.213-18.4c-4.005-4.882-9.948-7.571-16.729-7.571h-5.505
		c-3.112,0-5.749-1.126-7.427-3.171c-1.758-2.142-2.366-5.13-1.713-8.415c1.504-7.554,9.113-13.936,16.616-13.936h5.505
		c3.112,0,5.749,1.126,7.427,3.171c1.758,2.142,2.366,5.13,1.713,8.415L240.97,189.907z"/>
	<path style="fill:#EC589B;" d="M275.187,176.84h20.381l-13.521,67.921c-0.65,3.259,1.467,6.428,4.726,7.076
		c0.397,0.078,0.792,0.117,1.181,0.117c2.813,0,5.327-1.981,5.895-4.844l13.989-70.272h22.776c3.324,0,6.017-2.695,6.017-6.017
		s-2.693-6.017-6.017-6.017h-27.741c-0.008,0-0.017,0-0.025,0h-27.66c-3.324,0-6.017,2.695-6.017,6.017
		S271.864,176.84,275.187,176.84z"/>
</g>
<g>
</g>
<g>
</g>
<g>
</g>
<g>
</g>
<g>
</g>
<g>
</g>
<g>
</g>
<g>
</g>
<g>
</g>
<g>
</g>
<g>
</g>
<g>
</g>
<g>
</g>
<g>
</g>
<g>
</g>
</svg>
